<svg version="1" xmlns="http://www.w3.org/2000/svg" width="533.333" height="533.333" viewBox="0 0 400.000000 400.000000"><path d="M111 38.9c-17.7 3.8-34.1 12.2-44.4 22.9l-4.9 5.1 39.9.4c27.6.2 41 .7 43.6 1.5 5.3 1.8 16.8 11 20.5 16.5 2.4 3.6 3.3 6.2 3.8 11.4 1.7 15.6 8.3 29.7 19 40.3l6.3 6.3 5.7-4.9c7.1-6.2 12.6-13.3 16.2-20.9 2.4-5.3 2.8-7.2 2.8-15.5 0-5.2-.4-10.3-1-11.2-.7-1.2-1 1.4-1 9 0 9.7-.3 11.2-2.7 15.8-1.4 2.8-4.7 7.3-7.3 10l-4.6 4.9 4.1-6.4c6.3-10 8.2-17.5 7.9-30.6-.3-10-.6-11.4-3.1-15.6-10.2-16.8-37.9-34.3-62.3-39.4-10-2-27.7-1.8-38.5.4z"/><path d="M55.6 76.2c-3 4.6-7.6 15.7-9.6 23.4-8.1 30.4-1.6 78.5 15.2 113.6l5.1 10.8-1.8 9.2c-2 9.7-3.2 41.2-1.5 37.3.8-1.9.9-1.9.9.1.2 4.2 7.9 17.8 13 22.9l5.1 4.9V181.2l-3.4-8.9c-7.4-19.1-10-43.3-6.2-58 1-4 3.6-10.7 5.7-15C81.7 92 82 91 82 82.8V74H69.5c-11.8 0-12.5.1-13.9 2.2zM215 84.5c0 .5.5 1.7 1 2.5s1 1 1 .5c0-.6-.5-1.7-1-2.5s-1-1.1-1-.5zM157 264.2V325h5.4c6 0 6.1 0 7.1 4.7l.7 3.3h-15l-.7 6-.7 6H134v-12H70v2.2c.1 4.9 1.9 11.2 3.5 12.4 1.3 1 .8 1.3-3.7 1.9-11.6 1.4-22.8 3.8-24.5 5.1-1.7 1.4-1.7 1.5.1 2.8 6.2 4.9 45.1 8.2 112.4 9.6 95.6 2 190.8-2.5 199.8-9.6 1.8-1.3 1.8-1.4.1-2.8-2.2-1.7-15.2-4.1-29.7-5.6-22.4-2.2-42-3.1-80.8-3.7-22.1-.3-40.5-.9-40.7-1.4-.6-.9-.8-37.9-.2-38.5.2-.3 2.8 1.2 5.8 3.2 4.9 3.4 8.6 5.2 28.7 14.5 7.4 3.4 21.4 7.2 33 8.9 13.7 2 45 .8 59.8-2.4 13-2.8 29-8 39.4-12.9l6.5-3-16.7-1.3c-64.2-4.8-99.5-19.9-119.9-51.2-2.7-4.1-4.9-8.3-4.9-9.4 0-3.3-10.9-18.9-18-25.9-12.7-12.3-29.9-19-55.2-21.7l-7.8-.8v60.8zM101 346c0 .5-.5 1-1.1 1-.5 0-.7-.5-.4-1 .3-.6.8-1 1.1-1 .2 0 .4.4.4 1zM63.1 276.6c0 1.1.3 1.4.6.6.3-.7.2-1.6-.1-1.9-.3-.4-.6.2-.5 1.3z"/><path d="M64.6 285c.3 3.6 1.4 13.9 2.4 23 1.1 9.1 2 16.8 2 17.2 0 .5 2.9.8 6.5.8H82v-20.5l-3.4-2.7c-4.2-3.3-9.7-11.7-12.4-18.8l-2.1-5.5.5 6.5z"/></svg>