<?xml version="1.0" encoding="UTF-8"?>
<svg width="439px" height="400px" viewBox="0 0 439 400" version="1.1" xmlns="http://www.w3.org/2000/svg" xmlns:xlink="http://www.w3.org/1999/xlink">
    <!-- Generator: Sketch 52.4 (67378) - http://www.bohemiancoding.com/sketch -->
    <title>Bronto</title>
    <desc>Created with Sketch.</desc>
    <defs>
        <polygon id="path-1" points="0.232824427 0.19525 320.767176 0.19525 320.767176 35 0.232824427 35"></polygon>
        <polygon id="path-3" points="0 0.703767788 438.869287 0.703767788 438.869287 359.228182 0 359.228182"></polygon>
    </defs>
    <g id="Welcome" stroke="none" stroke-width="1" fill="none" fill-rule="evenodd">
        <g id="Desktop" transform="translate(-572.000000, -905.000000)">
            <g id="Our-Services" transform="translate(59.000000, 834.000000)">
                <g id="Bronto" transform="translate(732.500000, 271.000000) scale(-1, 1) translate(-732.500000, -271.000000) translate(513.000000, 71.000000)">
                    <g id="Group-3" transform="translate(26.000000, 365.000000)">
                        <mask id="mask-2" fill="white">
                            <use xlink:href="#path-1"></use>
                        </mask>
                        <g id="Clip-2"></g>
                        <path d="M320.767176,17.59775 C320.767176,27.21275 249.011863,35.00025 160.5,35.00025 C71.9881374,35.00025 0.232824427,27.21275 0.232824427,17.59775 C0.232824427,7.98275 71.9881374,0.19525 160.5,0.19525 C249.011863,0.19525 320.767176,7.98275 320.767176,17.59775" id="Fill-1" fill="#E2E6F9" mask="url(#mask-2)"></path>
                    </g>
                    <path d="M203,309 L203,369.156289 C207.968944,379.008494 238.562733,380.113345 239,369.410874 L231.606211,309 L203,309 Z" id="Fill-4" fill="#40A1A7"></path>
                    <path d="M292,309 L292,369.156289 C299.334556,379.008494 326.83914,380.113345 327.269434,369.410874 L336,309 L292,309 Z" id="Fill-6" fill="#40A1A7"></path>
                    <path d="M212.966459,346.008458 C212.966459,331.619569 219.165597,318.464296 229,309 L203,309 L203,369.220162 C205.588788,374.329797 215.074365,377.048685 223.66047,376.99934 C216.997892,368.299885 212.966459,357.564965 212.966459,346.008458" id="Fill-8" fill="#338186"></path>
                    <path d="M305.100999,368.094486 C305.100999,347.985895 317.148121,330.309874 334.287756,321.856018 L336,310 L292,310 L292,369.913391 C294.70962,373.509471 300.141142,375.917494 305.948523,377 C305.425269,374.096135 305.100999,371.128448 305.100999,368.094486" id="Fill-10" fill="#338186"></path>
                    <g>
                        <mask id="mask-4" fill="white">
                            <use xlink:href="#path-3"></use>
                        </mask>
                        <g id="Clip-13"></g>
                        <path d="M296.847607,211.447973 C296.847607,211.447973 211.758062,185.688247 152.497995,246.363041 C123.356287,276.201123 100.895765,360.909616 -0.000246629213,325.506329 C-0.000246629213,325.506329 66.352877,409.304959 176.946349,312.704137 C176.946349,312.704137 239.80227,369.724685 334.098484,318.523315 C350.242832,309.757562 360.413821,278.999753 334.098484,223.088795 C334.098484,223.088795 294.519428,65.9660548 384.156815,42.6918082 C384.156815,42.6918082 439.150197,109.193178 438.86904,42.6918082 C438.86904,42.6918082 439.870354,-7.80928767 380.664546,1.95756164 C380.664546,1.95756164 266.58127,32.2172877 296.847607,211.447973" id="Fill-12" fill="#47B3B9" mask="url(#mask-4)"></path>
                    </g>
                    <path d="M16,340.060868 C41.3793502,358.297984 95.1091831,379.680284 170,318 C125.504635,350.801548 53.6713924,365.098516 16,340.060868" id="Fill-15" fill="#00ACB8"></path>
                    <path d="M228.062027,333.295025 C224.369759,333.618007 220.682416,333.844834 217,334.024816 C244.575016,342.654098 284.995383,345.240418 333.879149,318.662228 C344.473177,312.902798 352.490745,297.648693 349.286181,272 C344.724419,323.667212 282.123345,335.40057 228.062027,333.295025" id="Fill-17" fill="#8ACFD2"></path>
                    <path d="M390,17.0445903 C391.483675,14.6142701 393.554537,11.9632346 396.637875,10.6659194 C399.728462,9.31955634 403.498059,10.0920597 405.873389,12.2869503 C408.338126,14.3911024 409.570494,18.0451661 408.744082,21.3411806 C407.946668,24.6470047 405.735654,27.1018488 403.483561,29 L400.530709,24.4606229 C402.524246,23.5139997 404.2109,22.0352075 404.812585,20.2400567 C405.467432,18.4841442 404.89716,16.3947065 403.440065,15.0924865 C401.992636,13.7632902 399.883112,13.4591936 398.271367,14.3739357 C396.596796,15.2617015 395.4635,17.1475908 394.825568,19.4086959 L390,17.0445903 Z" id="Fill-19" fill="#2B6B6F"></path>
                    <path d="M427.342895,66 C427.342895,66 451.152753,38.3669765 424,15 C434.242386,28.6819634 434.868224,45.8597154 427.342895,66" id="Fill-21" fill="#8ACFD2"></path>
                    <path d="M260,319 L260,378.698601 C269.898763,387.073834 298.600225,384.179762 295.432621,379.233349 L304,319 L260,319 Z" id="Fill-23" fill="#47B3B9"></path>
                    <path d="M240.931624,257 L245,256.29218 L240.243875,206 C236.269943,206.31075 232.174929,206.796605 228,207.460032 L240.931624,257 Z" id="Fill-25" fill="#40A1A7"></path>
                    <path d="M264,206 L267.583445,247.763989 L271.220739,248 L275,206.983793 C271.639297,206.571395 267.938362,206.233527 264,206" id="Fill-27" fill="#40A1A7"></path>
                    <path d="M217.003355,255 L220,253.675908 L205.702491,213 C202.474021,214.073522 199.235791,215.294438 196,216.660291 L217.003355,255 Z" id="Fill-29" fill="#40A1A7"></path>
                    <path d="M185.98359,257 L188,255.838337 L174.123819,228 C172.067628,229.325519 170.028841,230.726851 168,232.203997 L185.98359,257 Z" id="Fill-31" fill="#40A1A7"></path>
                    <path d="M177.063389,313 L174,379.101078 C181.375735,388.896833 209.912453,390.184261 210.345163,379.545781 L220,319.682833 L177.063389,313 Z" id="Fill-33" fill="#47B3B9"></path>
                </g>
            </g>
        </g>
    </g>
</svg>