<?xml version="1.0" encoding="UTF-8"?>
<svg width="201px" height="47px" viewBox="0 0 201 47" version="1.1" xmlns="http://www.w3.org/2000/svg" xmlns:xlink="http://www.w3.org/1999/xlink">
    <!-- Generator: Sketch 52.4 (67378) - http://www.bohemiancoding.com/sketch -->
    <title>Cloud--small</title>
    <desc>Created with Sketch.</desc>
    <g id="Welcome" stroke="none" stroke-width="1" fill="none" fill-rule="evenodd" fill-opacity="0.65">
        <g id="Desktop" transform="translate(-93.000000, -325.000000)" fill="#FFFFFF">
            <g id="Hero" transform="translate(93.000000, 63.000000)">
                <g id="cloud" transform="translate(0.000000, 262.000000)">
                    <path d="M105.920406,46.9924378 C78.4370239,46.9913184 50.9525117,47.0058705 23.4691298,46.9823633 C14.645601,46.9745276 9.75795839,43.6152485 9.92638086,37.8157067 C10.0880212,32.2288484 14.5789103,29.2994137 23.2532326,29.0766558 C24.7532099,29.0385967 26.6522014,29.3800096 27.6604756,28.6233042 C29.5651189,27.194967 32.5085559,24.7535849 32.1931876,23.355471 C31.7342647,21.3103518 28.9626412,18.6171077 26.865838,18.3148733 C21.5124903,17.5413772 15.9421149,18.3182315 10.5469442,17.7148821 C7.59785545,17.3857825 4.10958875,16.205949 2.11790829,14.193292 C-2.26220625,9.76835687 0.558022335,2.13302109 6.8552141,0.559163575 C9.18260915,-0.0217980545 11.7066855,0.0263355679 14.141464,0.0252161814 C49.7204279,-0.00724602913 85.2982614,-0.0083654157 120.877225,0.0218580217 C123.312004,0.0240967948 125.860948,-0.0654541307 128.155563,0.584909466 C132.482551,1.81175714 135.727792,4.71208774 135.289215,9.41686949 C134.85403,14.1070992 131.733127,17.3432458 126.795749,17.7070464 C121.552046,18.0943542 116.260867,17.8626412 110.991166,17.9163717 C107.206747,17.9566696 103.372592,18.3786784 103.261818,23.2088314 C103.143131,28.379278 107.21918,29.010612 111.155067,29.025164 C132.991209,29.1057598 154.827352,29.080014 176.663494,29.094566 C181.370281,29.0979241 186.079328,29.0184477 190.781593,29.1527741 C197.040352,29.3318759 201.011279,32.8557049 200.999976,38.0015249 C200.989803,42.7051873 196.381357,46.8984094 190.630125,46.9297522 C171.242326,47.0383327 151.852265,46.9868409 132.462204,46.9935572 C123.614938,46.9969154 114.767672,46.9935572 105.920406,46.9924378" id="Cloud--small"></path>
                </g>
            </g>
        </g>
    </g>
</svg>