<?xml version="1.0" encoding="UTF-8"?>
<svg width="275px" height="121px" viewBox="0 0 275 121" version="1.1" xmlns="http://www.w3.org/2000/svg" xmlns:xlink="http://www.w3.org/1999/xlink">
    <!-- Generator: Sketch 52.4 (67378) - http://www.bohemiancoding.com/sketch -->
    <title>Cloud--large</title>
    <desc>Created with Sketch.</desc>
    <g id="Welcome" stroke="none" stroke-width="1" fill="none" fill-rule="evenodd" fill-opacity="0.6">
        <g id="Desktop" transform="translate(-187.000000, -83.000000)" fill="#FFFFFF">
            <g id="Hero" transform="translate(93.000000, 63.000000)">
                <g id="cloud" transform="translate(94.000000, 20.000000)">
                    <path d="M34.045106,120.988704 C31.4628835,120.988704 28.8713613,121.055419 26.2999885,120.864583 C18.8896609,120.316898 13.6973168,115.403249 13.4958229,108.89154 C13.2865791,102.140898 18.6695675,96.8409224 26.4224348,96.2684133 C30.0245267,96.0046558 34.0032572,96.7788618 37.1372631,95.4678315 C39.9163297,94.3041952 43.8113628,90.6177952 43.5230714,88.5666922 C43.1247334,85.7444862 39.5272914,81.6438317 36.8102229,81.2187166 C29.7408852,80.1109348 22.4034055,80.7625711 15.1744225,80.6120742 C6.41718537,80.4305469 -0.0569702687,75.2128015 0.000378009676,68.497844 C0.060826195,61.4601714 6.12734407,56.0236624 14.9357296,55.9569472 C39.473043,55.7661109 64.0134563,55.87782 88.5523196,55.8281715 C91.3856345,55.8235169 94.6947852,56.4084381 96.9205184,55.1687776 C99.4236932,53.7739655 102.19656,50.7624746 102.494151,48.1823049 C102.728194,46.1575777 99.8127316,42.7892383 97.5033009,41.6969717 C94.6451867,40.345602 90.970247,40.444899 87.6440469,40.4154202 C73.9548578,40.2897475 60.2625689,40.4650687 46.5733798,40.3145717 C32.7989434,40.1625232 24.1052544,32.0403415 24.3315476,19.8562932 C24.5485411,8.17959035 33.4003253,0.0620631963 46.5408308,0.0480995601 C114.217999,-0.0263731661 181.895167,0.0279298634 249.572336,2.59107616e-06 C258.534167,-0.00310043918 265.877846,2.7803177 269.75273,11.4889721 C273.337772,19.5459902 272.878986,27.6138689 266.459079,33.7423536 C263.038331,37.0067415 257.808788,38.9554445 253.061281,40.0787414 C248.394371,41.1834202 243.285724,40.2788869 238.401821,40.6450444 C233.800009,40.9894808 229.024602,42.0057232 229.024602,47.9790565 C229.024602,53.9523897 230.94329,53.9523897 236.749571,56.0702079 C242.555851,58.188026 247.389771,62.2817716 247.535697,66.6639532 C247.992778,80.3902075 236.41943,80.3902075 233.44817,80.5205348 C225.971194,80.846353 218.467869,80.5189833 210.981594,80.7222317 C205.7784,80.8634196 199.677784,80.8866923 199.728932,88.1974316 C199.77853,95.0877103 205.319614,96.0822315 210.831249,96.1055042 C226.329233,96.1722194 241.827218,96.1070558 257.325203,96.1985952 C260.40341,96.2156618 263.624214,96.2079042 266.527277,97.0658921 C272.014112,98.6872254 275.245765,102.479128 274.985373,108.537795 C274.73893,114.290813 272.08851,118.580752 266.43118,120.105892 C263.253775,120.960777 259.786529,120.953019 256.449479,120.957674 C218.994854,121.010425 181.540228,120.991807 144.085602,120.991807 C107.404404,120.993358 70.7247548,120.99491 34.045106,120.988704 Z" id="Cloud--large"></path>
                </g>
            </g>
        </g>
    </g>
</svg>