<?xml version="1.0" encoding="UTF-8"?>
<svg width="232px" height="54px" viewBox="0 0 232 54" version="1.1" xmlns="http://www.w3.org/2000/svg" xmlns:xlink="http://www.w3.org/1999/xlink">
    <!-- Generator: Sketch 52.4 (67378) - http://www.bohemiancoding.com/sketch -->
    <title>Cloud--small-dot</title>
    <desc>Created with Sketch.</desc>
    <defs>
        <polygon id="path-1" points="0 0.0167142857 231.766073 0.0167142857 231.766073 54 0 54"></polygon>
    </defs>
    <g id="Welcome" stroke="none" stroke-width="1" fill="none" fill-rule="evenodd">
        <g id="Desktop" transform="translate(-689.000000, -81.000000)">
            <g id="Hero" transform="translate(-57.000000, -71.000000)">
                <g id="Cloud--small-dot" transform="translate(862.000000, 179.500000) scale(-1, 1) translate(-862.000000, -179.500000) translate(746.000000, 152.000000)">
                    <g id="Group-3">
                        <mask id="mask-2" fill="white">
                            <use xlink:href="#path-1"></use>
                        </mask>
                        <g id="Clip-2"></g>
                        <path d="M122.133011,53.9915143 C90.4428539,53.9902286 58.7513933,54.0069429 27.061236,53.9799429 C16.8871236,53.9709429 11.2513483,50.1125143 11.4455506,43.4512286 C11.6319326,37.0342286 16.8102247,33.6695143 26.8122921,33.4136571 C28.5418652,33.3699429 30.7315281,33.7620857 31.8941348,32.8929429 C34.0903146,31.2523714 37.4842921,28.4482286 37.1206517,26.8423714 C36.5914831,24.4933714 33.395618,21.3999429 30.9778652,21.0528 C24.8051011,20.1643714 18.3820899,21.0566571 12.1611011,20.3636571 C8.76060674,19.9856571 4.73840449,18.6305143 2.44186517,16.3188 C-2.60869663,11.2363714 0.643213483,2.46651429 7.90429213,0.6588 C10.5879326,-0.00848571429 13.4983596,0.0468 16.3058202,0.0455142857 C57.3307191,0.00822857143 98.3543146,0.00694285714 139.379213,0.0416571429 C142.186674,0.0442285714 145.125775,-0.0586285714 147.771618,0.688371429 C152.760921,2.09751429 156.502899,5.4288 155.997191,10.8326571 C155.495393,16.2198 151.896787,19.9368 146.203663,20.3546571 C140.157326,20.7995143 134.056247,20.5333714 127.979933,20.5950857 C123.616247,20.6413714 119.195213,21.1260857 119.067483,26.6739429 C118.930629,32.6126571 123.630584,33.3378 128.168921,33.3545143 C153.347438,33.4470857 178.525955,33.4175143 203.704472,33.4342286 C209.131708,33.4380857 214.561551,33.3468 219.983573,33.5010857 C227.200337,33.7068 231.779079,37.7542286 231.766045,43.6646571 C231.754315,49.0672286 226.440472,53.8835143 219.808921,53.9195143 C197.453506,54.0442286 175.095483,53.9850857 152.737461,53.9928 C142.535978,53.9966571 132.334494,53.9928 122.133011,53.9915143" id="Fill-1" fill-opacity="0.65" fill="#FFFFFF" mask="url(#mask-2)"></path>
                    </g>
                    <path d="M194.9997,10.9289896 C194.960953,16.727834 190.209782,21.0929274 184.035664,20.9984967 C178.049937,20.906726 173.825189,16.3261709 174.005562,10.1243335 C174.177919,4.25233854 178.38797,0.0388662956 184.123847,0.000296000405 C190.514412,-0.0422643253 195.042455,4.50903051 194.9997,10.9289896" id="Fill-4" fill-opacity="0.65" fill="#FFFFFF"></path>
                </g>
            </g>
        </g>
    </g>
</svg>