<?xml version="1.0" encoding="UTF-8"?>
<svg width="1024px" height="180px" viewBox="0 0 1024 180" version="1.1" xmlns="http://www.w3.org/2000/svg" xmlns:xlink="http://www.w3.org/1999/xlink">
    <!-- Generator: Sketch 52.4 (67378) - http://www.bohemiancoding.com/sketch -->
    <title>Contact--mask</title>
    <desc>Created with Sketch.</desc>
    <g id="Welcome" stroke="none" stroke-width="1" fill="none" fill-rule="evenodd">
        <g id="Desktop" transform="translate(0.000000, -1438.000000)" fill="#F5F6F9">
            <g id="Contact" transform="translate(-74.000000, 1438.000000)">
                <path d="M73.221576,179.969 C73.607424,169.415591 73.221576,90.6085537 73.221576,89.9845 C73.2186306,61.3620349 72.9859436,32.0772627 73.0006706,3.45329742 C73.0006706,2.14068437 73.167086,0.826571189 73.221576,-4.26325641e-13 C79.1020766,3.33478721 84.592311,7.02510504 90.5273016,9.6893345 C101.167576,14.467246 112.660546,15.988377 124.11817,17.1629782 C149.042185,19.7176982 174.067817,19.2286561 199.071358,19.6936961 C212.254989,19.9397173 225.457766,21.6678662 238.5442,23.5250261 C244.134578,24.3185945 249.667521,26.6737973 254.832288,29.1715124 C262.27238,32.7673221 264.84961,38.9688562 263.37838,47.6005996 C262.521267,52.6305329 261.477121,57.6289633 260.572882,62.652896 C258.998563,71.3926488 262.786354,78.0667236 268.990849,83.3831815 C274.226306,87.8670676 280.564817,90.2462725 287.320102,91.5243826 C310.388512,95.8852582 333.702864,95.3887154 356.986288,95.1171921 C370.090394,94.965679 383.201864,94.4091311 396.285351,93.6275638 C426.284299,91.8394098 456.303864,90.9093297 486.341102,91.6038895 C493.999154,91.7794046 501.605662,93.7085707 509.265187,94.5441427 C517.259016,95.4172179 520.998207,103.619924 521.263293,111.167074 C521.488617,117.581627 520.54756,124.057685 519.914298,130.484238 C518.842171,141.346674 528.192358,150.107428 536.167042,151.583555 C546.252107,153.452716 556.331283,155.479391 566.494402,156.7485 C610.575329,162.258475 654.884526,160.431317 699.114196,160.263303 C715.729225,160.200297 732.348671,158.232128 748.940136,156.811506 C761.016295,155.779417 773.118964,154.678322 785.083198,152.777658 C797.883927,150.746483 810.778909,148.556295 822.645945,142.831802 C836.969448,135.922206 844.758571,124.365211 845.427178,108.082809 C845.699628,101.48374 845.484613,94.8336676 846.213601,88.2901041 C847.070713,80.5929411 852.150064,75.5075032 858.401686,71.8426875 C869.473462,65.3516285 881.60853,62.048344 894.1427,59.8416539 C917.367216,55.7508016 940.783184,56.3538535 964.193261,56.1318344 C981.591767,55.9668202 999.003527,55.522782 1016.37552,54.5521984 C1028.58865,53.8711397 1040.85478,52.7535434 1052.89854,50.6488622 C1068.76544,47.8766234 1084.31129,43.6252573 1097.54352,31.8297414 C1097.74086,33.6688998 1097.96471,34.7924965 1097.96618,35.9160933 C1097.98974,52.7895465 1097.99564,69.6629998 1097.97207,86.5379532 C1097.98551,148.825318 1097.99222,179.969 1097.99222,179.969 L73.221576,179.969 Z" id="Contact--mask" transform="translate(585.496111, 89.984500) scale(1, -1) translate(-585.496111, -89.984500) "></path>
            </g>
        </g>
    </g>
</svg>