<?xml version="1.0" encoding="UTF-8"?>
<svg width="83px" height="142px" viewBox="0 0 83 142" version="1.1" xmlns="http://www.w3.org/2000/svg" xmlns:xlink="http://www.w3.org/1999/xlink">
    <!-- Generator: Sketch 52.4 (67378) - http://www.bohemiancoding.com/sketch -->
    <title>Group 28</title>
    <desc>Created with Sketch.</desc>
    <defs>
        <polygon id="path-1" points="0 0.478669024 74.9690303 0.478669024 74.9690303 108.389735 0 108.389735"></polygon>
    </defs>
    <g id="Welcome" stroke="none" stroke-width="1" fill="none" fill-rule="evenodd">
        <g id="Desktop" transform="translate(-705.000000, -1594.000000)">
            <g id="Contact" transform="translate(-74.000000, 1438.000000)">
                <g id="Group-28" transform="translate(820.500000, 227.000000) scale(-1, 1) translate(-820.500000, -227.000000) translate(779.000000, 156.000000)">
                    <path d="M42.6010022,82.8886848 C43.9683555,88.8968717 45.3357087,94.9057275 46.7757651,101.234957 C49.1542927,99.2237565 51.7602679,97.0205986 54.4916393,94.7110951 C56.4306129,96.6105998 56.5540082,98.2138086 54.5483345,99.8250434 C53.7739457,100.447064 52.9675407,101.035643 52.234506,101.704483 C48.8121209,104.829302 46.0013763,108.089227 46.5349775,113.360352 C46.9918736,117.865656 46.6670439,122.451221 46.6870539,127 C45.3790638,124.265783 44.0710737,121.532904 42.7630836,118.800025 C42.6496934,118.15192 42.5363031,117.504483 42.4229128,116.857715 C41.6278469,104.545045 43.2606668,91.7949541 36.5379579,80.5062778 C33.4804227,75.3722643 29.8619391,70.5753461 26.6176435,65.5476781 C26.0907122,64.7316937 26.1900954,63.5090547 26,62.4743597 C27.1665858,62.7412268 28.7046914,62.6328747 29.4277211,63.3498709 C31.2659774,65.1731279 32.7400509,67.3655844 34.3555288,69.4048766 C37.2176325,63.4348135 39.9083169,57.7717479 42.6550294,52.1361046 C43.2359877,50.9442323 43.8209481,49.6179232 44.7800964,48.7939127 C45.5091291,48.1678788 46.8344612,48.2394446 47.8943268,48 C47.982371,48.9771748 48.4572761,50.1376116 48.0970952,50.9020954 C45.7332416,55.9190619 43.1819606,60.8464039 40.7127208,65.8138763 C40.4185731,66.4057994 40.3165218,67.0947043 40.0150371,67.6819456 C37.0682242,73.4092198 38.9211545,78.302451 42.6010022,82.8886848" id="Fill-1" fill="#0AA3CF"></path>
                    <path d="M26.2865,106 C26.2245,105.689358 26.1625,105.378236 26.1005,105.067593 C26.3675,105.045062 26.6335,105.022531 26.8995,105 C26.6955,105.333174 26.4915,105.666826 26.2865,106" id="Fill-3" fill="#7AD4DF"></path>
                    <path d="M42.6555261,117.132983 C42.7705763,117.788966 42.8856265,118.444949 43,119.100933 C42.936384,125.733278 42.872768,132.3663 42.8098287,139 C41.5199125,138.675397 40.2306731,138.352149 38.9407569,138.028223 C38.3005362,137.503707 37.6603155,136.977836 37.0187412,136.456031 C36.0678848,134.547038 35.1177052,132.636012 34.1675256,130.724308 C33.0237909,127.76154 31.8800562,124.798772 30.7363215,121.834649 C30.4913322,120.971976 30.2456661,120.109304 30,119.246632 C30.8919777,118.061389 32.0147327,116.983218 32.6299131,115.667863 C34.1600812,112.393367 35.4601489,109.011122 37.1324379,105 C39.2189078,109.583752 40.9372169,113.358367 42.6555261,117.132983" id="Fill-9" fill="#7FDCE8"></path>
                    <g id="Group-13" transform="translate(0.000000, 11.000000)">
                        <mask id="mask-2" fill="white">
                            <use xlink:href="#path-1"></use>
                        </mask>
                        <g id="Clip-12"></g>
                        <path d="M1.12493243,59.8638765 C-1.36222973,52.4915741 0.0202027027,50.1521111 7.8397973,48.5144198 C8.38844595,48.3993642 8.95736486,48.3731235 9.50060811,48.2392284 C19.6641216,45.7342469 21.6958784,43.1720741 22.0479054,32.7390247 C22.3202027,24.675716 22.9506081,16.6399938 25.9857432,9.04565432 C28.0107432,3.97917284 31.3796622,-0.0383518519 38.5080405,0.532888889 C41.9438514,0.808080247 44.4188514,2.12482716 45.5884459,5.2353642 C46.5627703,7.82646914 47.1769595,10.5810741 47.6762838,13.3128025 C48.3823649,17.1782654 50.4580405,19.4006543 54.3681757,20.2679444 C58.6134459,21.2092469 63.019527,21.9951235 66.9242568,23.7821852 C76.0215541,27.9463889 77.4661486,35.3893395 70.9370946,43.0092469 C68.3289865,46.0538457 65.3262838,48.7626975 62.5060135,51.628321 C60.9384459,53.2222778 59.3783108,54.8236358 57.8147973,56.4216296 C56.269527,58.2611728 54.7242568,60.100716 53.1783108,61.9402593 C52.5175,59.4951605 51.2296622,60.8630432 50.1992568,61.5325185 C49.6006081,61.9220926 49.3147973,62.8405185 48.7006081,63.1432963 C44.9377703,64.9942778 43.8418243,68.4755494 42.9607432,72.1183025 C39.2323649,67.5039691 37.3553378,62.5821481 40.340473,56.8206235 C40.6465541,56.2298704 40.7499324,55.5368457 41.0472297,54.9413827 C43.5485811,49.9442037 46.1330405,44.9873951 48.5276351,39.9404259 C48.8925,39.1713704 48.4120946,38.0039938 48.3222297,37.0209753 C47.2485811,37.2618519 45.9060135,37.189858 45.1681757,37.8196358 C44.1965541,38.6485741 43.6033108,39.9828148 43.015473,41.181142 C40.2323649,46.8511605 37.5073649,52.5480926 34.6073649,58.553858 C32.9708784,56.5016975 31.4776351,54.2968025 29.6161486,52.462642 C28.8830405,51.741358 27.3256081,51.850358 26.1431757,51.5812222 C26.3364189,52.6227778 26.2357432,53.8520556 26.769527,54.6735926 C30.0553378,59.7313272 33.7215541,64.5569321 36.8188514,69.7216481 C43.6283108,81.0778333 41.9742568,93.9041728 42.7803378,106.289802 C41.0647973,102.542086 39.3492568,98.7943704 37.2661486,94.243284 C35.5965541,98.225821 34.2985811,101.584636 32.7702027,104.835123 C32.1566892,106.141778 31.0357432,107.212265 30.1452027,108.389735 L26.9431757,95.4685247 C27.0816892,95.0002284 27.219527,94.5326049 27.3580405,94.0649815 L26.8181757,94.159179 C26.5587162,93.1014753 26.2985811,92.0444444 26.0397973,90.9853951 C29.0749324,84.5577593 30.3465541,77.6894136 31.1485811,70.7066852 C31.2087162,70.1818704 31.3208784,69.4276173 31.0391216,69.1356049 C27.9316892,65.9221235 25.2634459,61.6583395 21.4479054,59.9298148 C17.5384459,58.1582284 12.4749324,58.9831296 7.93777027,58.4845556 C5.40939189,58.2066728 3.6397973,58.9878395 2.47966216,61.207537 C2.02831081,60.7594259 1.57628378,60.3119877 1.12493243,59.8638765" id="Fill-11" fill="#7FDCE8" mask="url(#mask-2)"></path>
                    </g>
                    <path d="M78.5214064,103.835672 C77.8875602,104.368402 77.2469941,104.893976 76.6056889,105.418692 C75.0010416,107.104986 73.2786519,108.610314 71.43852,109.934676 C71.2985275,110.03543 71.1604631,110.139598 71.0243268,110.247181 C69.9948409,111.323485 69.3431363,112.797177 68.5059442,114.07544 C67.4067105,116.291589 66.3081485,118.507062 65.2089149,120.722536 C65.2352141,120.985392 65.2614224,121.247347 65.2869587,121.509978 C64.6082306,125.654679 63.4933693,129.787904 63.3892081,133.946783 C63.3052071,137.28874 61.7219562,138.721393 59.1172532,139.798921 C56.6328396,140.199281 54.149098,140.598965 51.6653564,141 C51.4785382,140.925059 47.2502638,140.546304 47.0580695,140.487567 C46.9196359,136.03635 46.3665733,135.540795 46.3947976,131.001135 C46.3894216,129.884449 46.3840455,128.769113 46.3779974,127.653777 C46.3571652,123.060781 46.6844331,118.432002 46.2247796,113.88424 C45.6865012,108.56344 48.5183429,105.272794 51.966416,102.118527 C52.7049528,101.443384 53.5174105,100.849258 54.2982838,100.221375 C56.3183399,98.5949563 56.1940184,96.976639 54.2411631,95.0592335 C51.4892903,97.3905015 48.8630831,99.6144219 46.4667025,101.644576 C45.0559975,95.4325457 43.7145425,89.5262532 42.3750043,83.6290441 C41.5364499,81.72695 40.5244136,79.7024396 39.3388952,77.555513 L46.7133504,68.2624098 C54.2366901,68.2624098 56.8783465,68.919751 54.6383198,70.2344334 C51.2782798,72.2064569 53.2345607,71.7350437 53.2345607,75.3837158 C53.2345607,76.0361925 53.3962235,76.6513344 53.7195493,77.2291415 C54.160596,77.5865616 54.6012769,77.943614 55.0415919,78.3002989 C55.5826834,78.7476328 56.0830396,79.3089066 56.6177753,79.7723263 C57.5458944,80.2671204 58.6649721,80.7178141 59.9750084,81.1244075 C65.8974228,82.9152316 70.6713488,84.587918 74.2967864,86.1424667 C75.2610948,86.4652364 76.2252365,86.7884864 77.1889597,87.1129378 C77.2976395,87.2902926 77.4063194,87.4676474 77.5149992,87.6450586 C78.2538509,88.0256485 78.9163898,88.3983887 79.502616,88.763279 C83.1146591,91.0115573 83.9288563,94.2409024 81.9452076,98.4513144 C81.8570735,98.5935753 81.7684127,98.7350268 81.6792252,98.8756689 C81.5646587,99.154922 81.439215,99.4384727 81.3028583,99.7262931 C80.6026259,101.204856 79.4602123,102.471424 78.5214172,103.835887 Z M22.9454119,84.7797739 C21.9659603,87.6201518 21.0083501,90.3973283 20.0507398,93.1745048 C19.8551855,93.1495246 19.6596312,93.1292703 19.4634048,93.1157674 C16.6584434,89.7360026 13.8635621,86.3481361 11.0458326,82.9798487 C9.57014101,81.215746 8.05480303,79.4853987 6.55693489,77.7402004 C6.02936,77.6254262 5.50183372,77.5106519 4.97430743,77.3965528 C3.98309562,75.6567098 2.99188382,73.9168668 2,72.177699 C3.15383774,69.9497278 4.91382671,69.165887 7.42780866,69.444721 C11.9410144,69.9456769 16.9763704,69.1179519 20.8652807,70.8949277 C24.6601099,72.6293695 27.3138695,76.9084245 30.4044344,80.1322314 C30.6846617,80.4252434 30.5731084,81.1820784 30.5126277,81.7086898 C29.7149542,88.7153217 28.4509071,95.6078545 25.4322471,102.057494 C23.6373138,99.0976676 21.8437244,96.1364913 20.050807,93.1746399 C21.0084324,90.3974193 21.9660578,87.6201988 22.9454119,84.7797739 Z M5.777693,26.4529106 C3.96058336,19.2990976 3.18911817,12.0986997 4.84494589,4.8145841 C5.37919225,2.46373689 6.27161889,0.0852088322 9.20090178,0.00284141139 C12.0999443,-0.0781757238 13.92243,1.57862469 14.9398501,4.29539929 C17.8462848,12.0635923 17.1736048,19.9830172 15.8349648,27.8747614 C15.1676609,31.806793 13.9600625,35.6449798 12.7706083,40.4351179 C8.80912111,35.7536778 6.99873155,31.2599273 5.777693,26.4529106 Z" id="Combined-Shape" fill="#7FDCE8"></path>
                    <path d="M46.8851728,140.671105 C46.7329989,140.890843 46.5797101,141.111254 46.4264214,141.331666 C43.8539576,142.575272 43.4481605,142.273976 43,138.789856 C43.0512821,132.19436 43.1036789,125.596843 43.1560758,119 C44.2491639,121.753459 45.342252,124.507592 46.4358974,127.263074 C46.4409142,128.378612 46.4448161,129.492128 46.4492754,130.604971 C46.6326644,133.762181 46.8160535,136.920065 47,140.077949 C46.9777035,140.280835 46.9392419,140.478329 46.8851728,140.671105 Z" id="Fill-26" fill="#0AA3CF"></path>
                    <path d="M43,138 L41.8999466,101.06007 L30.8446407,73.2658337 L7.85636175,64 L1,70.0945171 C5.57090783,79.4128035 13.8953273,89.7346545 25.9732583,101.06007 C44.0901549,118.048194 29.3486472,123.234475 32.0925117,125.908906 C33.9217547,127.691861 37.5575841,131.722225 43,138 Z" id="Path-7" fill="#7FDCE8"></path>
                </g>
            </g>
        </g>
    </g>
</svg>