<?xml version="1.0" encoding="UTF-8"?>
<svg width="1024px" height="249px" viewBox="0 0 1024 249" version="1.1" xmlns="http://www.w3.org/2000/svg" xmlns:xlink="http://www.w3.org/1999/xlink">
    <!-- Generator: Sketch 52.4 (67378) - http://www.bohemiancoding.com/sketch -->
    <title>Hero--mask</title>
    <desc>Created with Sketch.</desc>
    <defs>
        <linearGradient x1="50%" y1="20.8674355%" x2="50%" y2="100%" id="linearGradient-1">
            <stop stop-color="#FFFFFF" offset="0%"></stop>
            <stop stop-color="#F5F6F9" offset="100%"></stop>
        </linearGradient>
    </defs>
    <g id="Welcome" stroke="none" stroke-width="1" fill="none" fill-rule="evenodd">
        <g id="Desktop" transform="translate(0.000000, -640.000000)" fill="url(#linearGradient-1)">
            <g id="Hero" transform="translate(-57.000000, -71.000000)">
                <g id="mask" transform="translate(57.000000, 708.000000)">
                    <path d="M1027,0 L1027,252 L0,252 C0,169.900452 0,87.800905 0,5.70135747 C13.3544233,16.7802353 29.2569478,22.3265158 45.6627022,26.8670769 C55.9190089,29.7052127 66.1399411,32.692724 76.2969711,35.8706606 C96.0918256,42.0634751 113.434432,52.37381 127.620726,67.5952941 C137.074831,77.738009 146.215131,88.1726335 155.482094,98.4875294 C176.645141,122.043258 202.146692,138.593158 234.049877,141.714081 C251.677761,143.438172 269.768937,142.16791 287.509791,140.626262 C322.280588,137.605683 356.264018,139.674136 389.142852,152.225104 C404.590073,158.122588 420.029307,164.045158 435.385239,170.174118 C474.450037,185.76505 514.710719,188.74686 555.830658,181.327113 C579.755193,177.008905 601.228622,166.081683 621.984292,154.095149 C657.738727,133.448253 695.904329,126.527946 736.724156,130.615819 C758.437218,132.791457 780.315741,134.460814 802.113246,134.380995 C830.795073,134.27495 857.094261,125.511964 879.842311,107.377086 C894.102777,96.0085792 905.718147,82.2523439 916.146761,67.4413575 C924.780408,55.1822986 935.829787,45.7408507 949.388469,39.5480362 C958.528769,35.3735023 967.98858,31.7759457 977.54995,28.673267 C996.143214,22.6389502 1014.26064,16.0151131 1027,0 Z" id="Hero--mask"></path>
                </g>
            </g>
        </g>
    </g>
</svg>