<?xml version="1.0" encoding="UTF-8"?>
<svg width="771px" height="466px" viewBox="0 0 771 466" version="1.1" xmlns="http://www.w3.org/2000/svg" xmlns:xlink="http://www.w3.org/1999/xlink">
    <!-- Generator: Sketch 52.4 (67378) - http://www.bohemiancoding.com/sketch -->
    <title>Hero--illustration</title>
    <desc>Created with Sketch.</desc>
    <defs>
        <polygon id="path-1" points="0.000921189094 0.326011298 410.76673 0.326011298 410.76673 365.572945 0.000921189094 365.572945"></polygon>
        <polygon id="path-3" points="0 0.540640909 235.556168 0.540640909 235.556168 40.0898087 0 40.0898087"></polygon>
        <polygon id="path-5" points="0.640945627 0.0685578947 171.756234 0.0685578947 171.756234 165.371146 0.640945627 165.371146"></polygon>
    </defs>
    <g id="Welcome" stroke="none" stroke-width="1" fill="none" fill-rule="evenodd">
        <g id="Desktop" transform="translate(-121.000000, -218.000000)">
            <g id="Hero" transform="translate(-57.000000, -71.000000)">
                <g id="Hero--illustration" transform="translate(178.000000, 231.000000)">
                    <g id="Bronto-Body" transform="translate(565.500000, 261.500000) scale(-1, 1) translate(-565.500000, -261.500000) translate(360.000000, 62.000000)">
                        <ellipse id="Oval" fill="#1946B9" cx="124.5" cy="386.96" rx="104.5" ry="11.96"></ellipse>
                        <path d="M73,309.884365 L73,377.001937 C67.5085118,388.098211 36.4816035,389.651189 35.9983526,377.600306 L28,305 L73,309.884365 Z" id="Fill-4" fill="#4C7DB6"></path>
                        <path d="M73,309.884365 L73,377.001937 C67.5085118,388.098211 36.4816035,389.651189 35.9983526,377.600306 L28,305 L73,309.884365 Z" id="Fill-6" fill="#E67E19"></path>
                        <path d="M73,362 L73,309.782474 L28,305 L31.9021938,339.970646 C48.4433272,341.191471 63.202011,349.584644 73,362" id="Fill-8" fill="#CC7016"></path>
                        <path d="M172,310 L172,376.947362 C166.682815,388.044933 136.467912,389.698711 136,377.643397 L146.440292,310 L172,310 Z" id="Fill-10" fill="#E67E19"></path>
                        <path d="M154.928203,352.998507 C161.217189,352.998507 167.286532,354.079268 173,356 L173,311 L146.031319,311 L139,355.339223 C144.087906,353.849676 149.420476,352.998507 154.928203,352.998507" id="Fill-12" fill="#CC7016"></path>
                        <g id="Group-16">
                            <mask id="mask-2" fill="white">
                                <use xlink:href="#path-1"></use>
                            </mask>
                            <g id="Clip-15"></g>
                            <path d="M197.844014,329.141158 C197.844014,329.141158 -12.0659047,410.390586 29.109075,234.850773 C30.2504331,229.99439 21.0029331,216.312757 19.2895074,212.002752 C12.1081155,193.961191 7.43993311,175.16524 3.729825,156.136316 C-4.12638446,115.881863 -0.988343919,69.8446806 26.9679872,37.6805018 C52.3944466,8.42571535 105.394841,-3.50023666 143.209618,9.98447814 C156.855928,14.8519554 167.854899,20.2879377 179.762791,28.2145759 C179.771122,28.2201229 258.099947,78.3731664 185.78894,133.540682 C185.78894,133.540682 155.660974,113.471699 154.652913,72.3491433 C143.209618,31.7498846 51.3169601,23.5662045 35.1324466,104.449532 C30.0671493,129.768734 41.5945885,185.737789 69.287102,208.771634 C325.401197,187.704194 148.626764,332.153169 410.767007,341.17811 C410.767007,341.17811 298.283528,403.376426 197.844014,329.141158 Z" id="Fill-14" fill="#F5A623" mask="url(#mask-2)"></path>
                        </g>
                        <path d="M24.0102955,274 C23.0254269,350.544926 92.9060772,352.375025 145,343.141969 C87.2641869,345.943534 27.353221,333.771311 24.0102955,274" id="Fill-17" fill="#FFC083"></path>
                        <path d="M246.577868,348.732907 C241.62593,347.723064 237.01954,345.960681 232.8005,343.603458 C228.099364,342.892418 223.401014,342.175845 218.711024,341.356903 C218.131394,341.257302 217.568484,341.121734 217,341 C280.987846,377.332215 346.658849,364.799095 383,352.592444 C337.434924,357.655493 291.847555,357.970896 246.577868,348.732907" id="Fill-19" fill="#F47925"></path>
                        <path d="M175,73.1013993 C176.797053,70.5385177 179.261276,67.7689955 182.766606,66.5425694 C186.285388,65.2597868 190.428295,66.3359287 192.935561,68.8827084 C195.547745,71.3382441 196.69108,75.4012836 195.571957,78.9571141 C194.482426,82.5183118 191.872932,85.0624079 189.255368,87 L186.253105,81.858135 C188.523634,80.9430118 190.49017,79.4294357 191.267637,77.5079454 C192.10429,75.6320771 191.595842,73.3107237 190.057048,71.7998312 C188.529014,70.2567349 186.204682,69.7951479 184.359205,70.6941692 C182.443783,71.5636704 181.0664,73.5522518 180.216297,75.9809511 L175,73.1013993 Z" id="Fill-21" fill="#B36214"></path>
                        <path d="M130,300.711488 C130,305.842185 123.058653,310 114.498595,310 C105.938537,310 99,305.842185 99,300.711488 C99,295.580791 111.966549,289 120.526607,289 C129.086665,289 130,295.580791 130,300.711488" id="Fill-23" fill="#E67E19"></path>
                        <path d="M157,315.038462 C157,319.437003 151.629953,323 145.001437,323 C138.37292,323 133,319.437003 133,315.038462 C133,310.63992 143.041901,305 149.664671,305 C156.296061,305 157,310.63992 157,315.038462" id="Fill-25" fill="#E67E19"></path>
                        <path d="M154,292.366274 C154,296.029918 149.300026,299 143.50275,299 C137.699974,299 133,296.029918 133,292.366274 C133,288.697189 141.786668,284 147.586695,284 C153.381221,284 154,288.697189 154,292.366274" id="Fill-27" fill="#E67E19"></path>
                        <path d="M91,307.366274 C91,311.029918 86.3000262,314 80.5027501,314 C74.6999738,314 70,311.029918 70,307.366274 C70,303.697189 78.7866684,299 84.5866946,299 C90.3812205,299 91,303.697189 91,307.366274" id="Fill-29" fill="#E67E19"></path>
                        <path d="M207.318692,58.3695652 C207.318692,58.3695652 229.512663,91.5815217 193,120 C208.97966,102.105261 214.082841,79.7731304 206.960724,57 L207.318692,58.3695652 Z" id="Fill-31" fill="#FFCB98"></path>
                        <path d="M112,320 L112,386.81099 C100.625592,396.298924 68.9279621,393.432631 72.5649289,387.826252 L64,320 L112,320 Z" id="Fill-33" fill="#F5A623"></path>
                        <path d="M115,321.366274 C115,325.029918 110.300026,328 104.50275,328 C98.6999738,328 94,325.029918 94,321.366274 C94,317.697189 102.786668,313 108.586695,313 C114.381221,313 115,317.697189 115,321.366274" id="Fill-35" fill="#E67E19"></path>
                        <path d="M208,320 L208,386.720795 C202.318182,397.887608 169.082386,399.864977 168.582386,387.734687 L160,320 L208,320 Z" id="Fill-37" fill="#F5A623"></path>
                    </g>
                    <g id="Browser-Window">
                        <g id="Group-5" transform="translate(67.000000, 58.000000)">
                            <path d="M90.607555,127 C90.607555,127 59.9954267,106.920871 56.4369551,68.6436912 C52.9325754,30.3684623 71.6580178,0 71.6580178,0 C71.6580178,0 105.17372,33.3539887 103.968244,71.685806 C102.708677,109.962986 90.607555,127 90.607555,127" id="Fill-1" fill="#B1D2BA"></path>
                            <path d="M64.8842531,162 C64.8842531,162 36.8298381,133.217491 27.9668141,94.0325086 C19.1057081,54.8494672 27.8574888,33 27.8574888,33 C27.8574888,33 67.1129556,62.9396334 71.0793554,102.784721 C75.0515092,142.68417 64.8842531,162 64.8842531,162" id="Fill-3" fill="#87BA97"></path>
                            <path d="M81.965861,196 C81.965861,196 45.1774346,194.889994 22.3972533,163.868558 C-0.382928016,132.903896 0,97 0,97 C0,97 46.1698231,108.043287 64.8675905,141.560767 C83.5653578,175.078248 81.965861,196 81.965861,196" id="Fill-5" fill="#FFD052"></path>
                            <path d="M16.3595471,123.320908 C15.8631151,122.762263 15.8631151,121.871185 16.4700808,121.369584 C17.0188709,120.867984 17.8430256,120.867984 18.3937548,121.424662 L43.0194974,148.747126 C43.0718555,148.802204 43.1300311,148.857282 43.1823892,148.914327 L73.6373295,182.649407 C74.1298831,183.263129 74.1298831,184.097163 73.581093,184.655808 C72.9760665,185.157408 72.1519118,185.102331 71.6031217,184.545653 L41.4778433,151.144973 L24.0542433,149.974572 C23.2843858,149.917527 22.7336566,149.248727 22.789893,148.467804 C22.8441902,147.686881 23.5054532,147.130203 24.2190742,147.185281 L38.7843118,148.133404 L16.3595471,123.320908 Z" id="Fill-7" fill="#D7B04A"></path>
                            <path d="M36.1024692,66.9324171 C35.8142435,66.2087532 36.1568895,65.4321383 36.8441969,65.0967819 C37.5859246,64.8202599 38.4445551,65.1536552 38.7307652,65.875358 L49.6994666,91.1153425 L51.7573579,77.9403451 C51.9286808,77.1617691 52.6119572,76.659715 53.4121362,76.7715005 C54.2123153,76.8832859 54.7262842,77.6049887 54.6134126,78.3286526 L51.8137937,95.9515353 L71.8666438,142.091482 C72.2092898,142.760234 71.8666438,143.593722 71.1249161,143.870244 C70.3831884,144.203639 69.5809938,143.870244 69.2383479,143.148541 L55.1273815,110.683685 L37.644376,106.514283 C36.8441969,106.347585 36.3866638,105.623921 36.5600024,104.847306 C36.7877611,104.123642 37.5294888,103.678461 38.2712165,103.845159 L53.7567978,107.514468 L36.1024692,66.9324171 Z" id="Fill-9" fill="#688971"></path>
                        </g>
                        <path d="M0,470 L188,470 C188,470 166.014963,421.098707 160.203209,392.210935 C154.332848,363.379886 136.723721,275.388464 90.3175942,289.52624 C43.9700736,303.720739 62.0206991,394.704801 41.0339166,430.35633 C19.9904817,466.062625 0,470 0,470" id="Fill-11" fill="#DCDEF3"></path>
                        <path d="M75.4645062,461 L699.535494,461 C704.183362,461 708,464.821191 708,469.47265 C708,474.180763 704.183362,478 699.535494,478 L75.4645062,478 C70.8185889,478 67,474.180763 67,469.47265 C67,464.821191 70.8185889,461 75.4645062,461" id="Fill-13" fill="#A9CCDF"></path>
                        <path d="M629.400759,278.299431 C629.400759,283.108648 630.172316,287.755933 631.604652,292.124224 C633.697767,297.432898 635.295298,301.857769 632.761016,306.503102 C629.565954,312.143447 622.956218,316.12544 618.272459,324.975181 C613.64506,333.711764 611,343.667722 611,354.28507 C611,388.905584 639.042305,417 673.472791,417 C708.014055,417 736,388.905584 736,354.28507 C736,339.131645 729.831431,324.421096 720.907024,313.583285 C714.680152,306.668938 712.641453,305.23105 714.295345,296.769558 C715.616904,290.077624 717.601185,285.375712 717.601185,278.299431 C717.601185,253.853387 697.878868,234 673.472791,234 C649.125019,234 629.400759,253.853387 629.400759,278.299431 Z" id="Fill-17" fill="#C8E46E"></path>
                        <polygon id="Fill-19" fill="#C8AF50" points="671.606937 465 666.737958 465 666.737958 365.804915 657 352.865488 660.917297 350.142017 666.737958 357.695241 666.737958 264 671.606937 264 671.606937 317.483877 691.140111 291.826429 695.114667 294.49112 671.606937 325.427008 671.606937 390.186838 706.029393 344.867497 710 347.587049 671.606937 398.129969"></polygon>
                        <g id="Browser" transform="translate(130.000000, 113.000000)">
                            <path d="M15.1383343,0 L508.806888,0 C517.125342,0 524,6.82458158 524,15.201183 L524,343.798817 C524,352.120618 517.125342,359 508.806888,359 L15.1383343,359 C6.81988023,359 0,352.120618 0,343.798817 L0,15.201183 C0,6.82458158 6.81988023,0 15.1383343,0" id="Fill-23" fill="#3135BA"></path>
                            <polygon id="Fill-25" fill="#DBD8F1" points="19 338 506 338 506 50 19 50"></polygon>
                            <path d="M401,100 L401,338 L105,338 L105,114.611158 C105,106.588006 109.868749,100 115.84829,100 L401,100 Z" id="Fill-27" fill="#FEFEFE"></path>
                            <path d="M220,97 L235,97 L235,122.413613 C235,126.566203 231.592583,130 227.469957,130 C223.351208,130 220,126.566203 220,122.413613 L220,97 Z" id="Fill-28" fill="#DBD8F1"></path>
                            <path d="M243,97 L259,97 L259,144.98401 C259,149.380825 255.402344,153 250.970703,153 C246.599609,153 243,149.380825 243,144.98401 L243,97 Z" id="Fill-29" fill="#DBD8F1"></path>
                            <path d="M230,96 L247,96 L247,116 L243.08785,116 L243.08785,114.945615 C243.08785,112.99951 241.466172,111.388535 239.507137,111.388535 C237.550075,111.388535 235.93037,112.99951 235.93037,114.945615 L235.93037,116 L230,116 L230,96 Z" id="Fill-30" fill="#DBD8F1"></path>
                            <path d="M28.5274285,27 C33.1921665,27 37,23.1917427 37,18.5264856 C37,13.8082573 33.1921665,10 28.5274285,10 C23.8607989,10 20,13.8082573 20,18.5264856 C20,23.1917427 23.8607989,27 28.5274285,27" id="Fill-40" fill="#EBEBEB"></path>
                            <path d="M53.5,27 C58.181737,27 62,23.1917427 62,18.5264856 C62,13.8082573 58.181737,10 53.5,10 C48.8201608,10 45,13.8082573 45,18.5264856 C45,23.1917427 48.8201608,27 53.5,27" id="Fill-41" fill="#EBEBEB"></path>
                            <path d="M77.4735144,27 C82.1387714,27 86,23.1917427 86,18.5264856 C86,13.8082573 82.1387714,10 77.4735144,10 C72.8063655,10 69,13.8082573 69,18.5264856 C69,23.1917427 72.8063655,27 77.4735144,27" id="Fill-43" fill="#EBEBEB"></path>
                            <g id="Group-12" transform="translate(34.000000, 61.000000)">
                                <path d="M6.99833754,59 L51.0016625,59 C54.8855566,59 58,62.1715585 58,65.9990354 C58,69.8284415 54.8855566,73 51.0016625,73 L6.99833754,73 C3.11637186,73 0,69.8284415 0,65.9990354 C0,62.1715585 3.11637186,59 6.99833754,59" id="Fill-101" fill="#B2B5EA"></path>
                                <path d="M6.99833754,85 L51.0016625,85 C54.8855566,85 58,88.1715585 58,91.9990354 C58,95.8284415 54.8855566,99 51.0016625,99 L6.99833754,99 C3.11637186,99 0,95.8284415 0,91.9990354 C0,88.1715585 3.11637186,85 6.99833754,85" id="Fill-102" fill="#B2B5EA"></path>
                                <path d="M6.99833754,112 L51.0016625,112 C54.8855566,112 58,115.117971 58,119 C58,122.828004 54.8855566,126 51.0016625,126 L6.99833754,126 C3.11637186,126 0,122.828004 0,119 C0,115.117971 3.11637186,112 6.99833754,112" id="Fill-103" fill="#B2B5EA"></path>
                                <path d="M6.99833754,142 L51.0016625,142 C54.8855566,142 58,145.117542 58,148.999035 C58,152.828442 54.8855566,156 51.0016625,156 L6.99833754,156 C3.11637186,156 0,152.828442 0,148.999035 C0,145.117542 3.11637186,142 6.99833754,142" id="Fill-104" fill="#B2B5EA"></path>
                                <path d="M6.99833754,59 L51.0016625,59 C54.8855566,59 58,62.1715585 58,65.9990354 C58,69.8284415 54.8855566,73 51.0016625,73 L6.99833754,73 C3.11637186,73 0,69.8284415 0,65.9990354 C0,62.1715585 3.11637186,59 6.99833754,59" id="Fill-101" fill="#B2B5EA"></path>
                                <path d="M6.99833754,85 L51.0016625,85 C54.8855566,85 58,88.1715585 58,91.9990354 C58,95.8284415 54.8855566,99 51.0016625,99 L6.99833754,99 C3.11637186,99 0,95.8284415 0,91.9990354 C0,88.1715585 3.11637186,85 6.99833754,85" id="Fill-102" fill="#B2B5EA"></path>
                                <path d="M6.99833754,112 L51.0016625,112 C54.8855566,112 58,115.117971 58,119 C58,122.828004 54.8855566,126 51.0016625,126 L6.99833754,126 C3.11637186,126 0,122.828004 0,119 C0,115.117971 3.11637186,112 6.99833754,112" id="Fill-103" fill="#B2B5EA"></path>
                                <path d="M6.99833754,142 L51.0016625,142 C54.8855566,142 58,145.117542 58,148.999035 C58,152.828442 54.8855566,156 51.0016625,156 L6.99833754,156 C3.11637186,156 0,152.828442 0,148.999035 C0,145.117542 3.11637186,142 6.99833754,142" id="Fill-104" fill="#B2B5EA"></path>
                                <path d="M10.0470149,2 L50.898823,2 C55.8856103,2 60,6.10688989 60,11.090792 L60,34.9632968 C60,39.947199 55.8856103,44 50.898823,44 L10.0470149,44 C5.05829317,44 1,39.947199 1,34.9632968 L1,11.090792 C1,6.10688989 5.05829317,2 10.0470149,2" id="Fill-105" fill="#FEFEFE"></path>
                                <path d="M33.7515334,175.08686 C35.5624254,175.526058 37.261104,176.294171 38.8533734,177.226741 L42.3629441,174.703771 C43.1832627,174.156224 44.2260734,173.991767 44.9399827,174.703771 L44.9941547,174.757945 L47.242292,177.006175 L47.2983987,177.062284 C48.0103734,177.774288 47.9000947,178.871316 47.2983987,179.693603 L44.8316387,183.203318 C45.762236,184.739544 46.4742107,186.494401 46.9133907,188.305368 L51.1910427,189.017372 C52.1777467,189.181829 53,189.839659 53,190.828339 L53,190.936687 L53,194.117487 L53,194.173596 C53,195.214515 52.1777467,195.87428 51.1910427,196.038737 L46.9133907,196.750741 C46.4742107,198.561708 45.762236,200.260456 44.8316387,201.850856 L47.2983987,205.360571 C47.9000947,206.184793 48.0103734,207.225712 47.2983987,207.939651 L47.2983987,207.993825 L44.9941547,210.298164 L44.9399827,210.298164 C44.2260734,211.010168 43.1832627,210.90182 42.3629441,210.298164 L38.8533734,207.829368 C37.261104,208.761938 35.5624254,209.473942 33.7515334,209.91314 L33.0395587,214.190968 C32.8751081,215.179648 32.2173054,216 31.1744947,216 L31.1203227,216 L27.9396534,216 L27.82744,216 C26.8426707,216 26.1829334,215.179648 26.0204174,214.190968 L25.306508,209.91314 C23.495616,209.473942 21.7427654,208.761938 20.204668,207.829368 L16.6970321,210.298164 C15.8747787,210.90182 14.7758614,211.010168 14.0638867,210.298164 L14.00778,210.298164 L11.7596427,207.993825 L11.7054707,207.939651 C10.9915614,207.225712 11.156012,206.184793 11.7054707,205.360571 L14.2264027,201.850856 C13.2396987,200.260456 12.527724,198.561708 12.088544,196.750741 L7.86699872,196.038737 C6.82418804,195.87428 6,195.214515 6,194.173596 L6,194.117487 L6,190.936687 L6,190.828339 C6,189.839659 6.82418804,189.181829 7.86699872,189.017372 L12.088544,188.305368 C12.527724,186.494401 13.2396987,184.739544 14.2264027,183.203318 L11.7054707,179.693603 C11.10184,178.871316 10.9915614,177.774288 11.7054707,177.062284 L11.7596427,177.006175 L14.00778,174.757945 L14.0638867,174.703771 C14.7758614,173.991767 15.8167373,174.156224 16.6409254,174.703771 L20.204668,177.226741 C21.7427654,176.294171 23.441444,175.526058 25.2504014,175.08686 L26.0204174,170.863206 C26.1829334,169.878396 26.8426707,169 27.82744,169 L27.8835467,169 L31.1203227,169 L31.1744947,169 C32.1611987,169 32.8190014,169.878396 32.9853867,170.863206 L33.7515334,175.08686 Z" id="Fill-106" fill="#B2B5EA"></path>
                                <path d="M29.5299521,185 C33.6613419,185 37,188.396565 37,192.529952 C37,196.661342 33.6613419,200 29.5299521,200 C25.3985623,200 22,196.661342 22,192.529952 C22,188.396565 25.3985623,185 29.5299521,185" id="Fill-107" fill="#DBD8F1"></path>
                                <path d="M398.832275,37 L447.11056,37 C452.52935,37 457,41.3755629 457,46.7453944 L457,194.254606 C457,199.624437 452.52935,204 447.11056,204 L398.832275,204 C393.411514,204 389,199.624437 389,194.254606 L389,46.7453944 C389,41.3755629 393.411514,37 398.832275,37" id="Fill-108" fill="#FEFEFE"></path>
                                <path d="M407.353766,53 L437.646234,53 C441.151627,53 444,55.8815924 444,59.4278669 L444,90.5721331 C444,94.1184076 441.151627,97 437.646234,97 L407.353766,97 C403.848373,97 401,94.1184076 401,90.5721331 L401,59.4278669 C401,55.8815924 403.848373,53 407.353766,53" id="Fill-109" fill="#DBD8F1"></path>
                                <path d="M405.557976,145.500701 L438.495624,145.500701 C440.991887,145.500701 443,147.571629 443,150.145976 C443,152.663071 440.991887,154.791251 438.495624,154.791251 L405.557976,154.791251 C403.059799,154.791251 401,152.663071 401,150.145976 C401,147.571629 403.059799,145.500701 405.557976,145.500701 M405.557976,125.970015 L438.495624,125.970015 C440.991887,125.970015 443,128.09622 443,130.61529 C443,133.189637 440.991887,135.260565 438.495624,135.260565 L405.557976,135.260565 C403.059799,135.260565 401,133.189637 401,130.61529 C401,128.09622 403.059799,125.970015 405.557976,125.970015 M405.557976,107 L438.495624,107 C440.991887,107 443,109.068954 443,111.643301 C443,114.16237 440.991887,116.288575 438.495624,116.288575 L405.557976,116.288575 C403.059799,116.288575 401,114.16237 401,111.643301 C401,109.068954 403.059799,107 405.557976,107 M405.557976,166.70945 L438.495624,166.70945 C440.991887,166.70945 443,168.780378 443,171.354725 C443,173.929072 440.991887,176 438.495624,176 L405.557976,176 C403.059799,176 401,173.929072 401,171.354725 C401,168.780378 403.059799,166.70945 405.557976,166.70945" id="Fill-110" fill="#DBD8F1"></path>
                                <path d="M252.027061,28 C259.750932,28 266,21.7108998 266,14 C266,6.28910018 259.750932,0 252.027061,0 C244.301256,0 238,6.28910018 238,14 C238,21.7108998 244.301256,28 252.027061,28" id="Fill-111" fill="#FEFEFE"></path>
                                <path d="M283.139567,8 L358.80389,8 C361.677836,8 364,10.2448595 364,13.0273533 C364,15.7532541 361.677836,18 358.80389,18 L283.139567,18 C280.322164,18 278,15.7532541 278,13.0273533 C278,10.2448595 280.322164,8 283.139567,8" id="Fill-112" fill="#FEFEFE"></path>
                                <path d="M82.2041215,8 L122.793925,8 C125.673383,8 128,10.2448595 128,13.0273533 C128,15.7532541 125.673383,18 122.793925,18 L82.2041215,18 C79.3246639,18 77,15.7532541 77,13.0273533 C77,10.2448595 79.3246639,8 82.2041215,8" id="Fill-113" fill="#FEFEFE"></path>
                            </g>
                            <path d="M167.093553,27 L382.908402,27 C386.788452,27 390,30.1593686 390,34.0278655 C390,37.8944406 386.788452,41 382.908402,41 L167.093553,41 C163.215457,41 160,37.8944406 160,34.0278655 C160,30.1593686 163.215457,27 167.093553,27" id="Fill-45" fill="#FEFEFE"></path>
                        </g>
                        <path d="M116.727855,332.768802 C116.727855,332.768802 107.867821,310.557961 119.368584,305.739457 C130.87323,300.920953 151.568001,320.638521 154.047568,336.258602 C156.523252,351.822018 147.715644,365.501801 153.109721,374.808587 C158.44943,384.058708 168.025956,407.1547 163.016338,420.283462 C158.06303,433.408316 156.905769,445.76135 160.375609,455.398358 C163.843508,465.035365 171.109396,470.408798 168.412357,484.311335 C166.319191,495.388423 148.649608,498.15916 132.910086,497.993072 C119.14917,497.82503 108.361016,498.213872 101.592206,490.458542 C95.4272692,483.42423 92.3438298,469.080095 97.9048943,453.846901 C103.683431,438.062686 115.902627,423.161668 115.73564,410.03486 C115.516226,396.964717 102.141711,388.490324 104.619336,373.810106 C107.096961,359.133795 117.059888,348.941858 117.661819,342.792697 C118.215207,336.645489 116.727855,332.768802 116.727855,332.768802" id="Fill-37" fill="#FFD052"></path>
                        <path d="M132.853506,403 C132.853506,403 124.64704,401.574225 118.779255,391.264922 C112.911469,380.955619 115.627788,369 115.627788,369 C115.627788,369 127.635566,375.8 130.735275,384.575192 C133.831151,393.294282 132.853506,403 132.853506,403" id="Fill-38" fill="#AAB086"></path>
                        <path d="M169.207902,445 C169.207902,445 180.131869,443.250161 187.958548,430.507395 C195.783166,417.76463 192.164512,403 192.164512,403 C192.164512,403 176.158768,411.367203 172.008443,422.196141 C167.864301,433.023151 169.207902,445 169.207902,445" id="Fill-39" fill="#AAB086"></path>
                        <path d="M353.273175,182.834197 C354.334663,183.497865 354.614313,184.827152 353.999871,185.877308 C353.330287,186.929416 351.934006,187.206595 350.872518,186.540975 L342.892648,181.561517 C342.053698,181.28629 341.161575,181.229684 340.379737,181.506862 C339.430503,181.838696 338.479299,182.66828 337.41978,184.106877 C336.472515,185.600129 336.525688,187.095333 337.083019,188.533929 C337.809715,190.30436 339.205995,192.07479 340.491991,193.624649 C343.617375,197.331427 346.51825,200.817633 349.423065,204.303839 L349.812999,204.744983 C352.826129,208.342451 354.557202,210.665287 354.891994,213.376564 C355.283897,216.199102 354.222409,218.855724 351.542102,222.948991 L245.486715,394.927685 C244.8191,395.923186 243.42282,396.25502 242.418443,395.591353 C242.418443,395.591353 241.022163,393.543743 241.691747,392.548242 L347.804246,220.571499 C349.868142,217.417127 350.705122,215.535435 350.482584,213.985576 C350.260045,212.381062 348.865734,210.555977 346.350854,207.567521 L345.96092,207.069771 C343.002932,203.52891 340.042976,199.931442 337.083019,196.445236 C335.521312,194.62015 333.847351,192.517886 332.953259,190.138443 C331.89374,187.427166 331.781486,184.549973 333.735097,181.616172 L333.790239,181.561517 C335.411027,179.293336 337.1421,177.964049 338.926345,177.356989 C340.826783,176.693321 342.66814,176.804583 344.564639,177.411644 L344.846259,177.522906 L353.273175,182.834197 Z" id="Fill-42" fill="#766C96" transform="translate(298.240436, 286.421202) rotate(-11.000000) translate(-298.240436, -286.421202) "></path>
                        <path d="M335.329485,164.982933 L374.808395,189.811255 C377.508571,191.545252 378.296205,195.178954 376.609835,197.86379 L373.683487,202.393094 C371.997117,205.07793 368.342655,205.859117 365.642479,204.182327 L326.21912,179.29877 C323.465377,177.564773 322.677743,173.986307 324.419664,171.246235 L327.288477,166.772166 C328.974846,164.032095 332.631293,163.250908 335.329485,164.982933" id="Fill-55" fill="#787AD2" transform="translate(350.495579, 184.563610) rotate(-11.000000) translate(-350.495579, -184.563610) "></path>
                        <path d="M136.540485,499.219029 C136.540485,500.220457 135.763818,501 134.763566,501 C133.761353,501 132.92781,500.220457 132.92781,499.219029 L132.92781,472.22367 L115.415554,450.237415 C114.748719,449.457872 114.915428,448.34452 115.694055,447.676901 C116.415806,447.064263 117.582767,447.231167 118.194685,448.01071 L132.92781,466.490004 L132.92781,414.835951 C132.92781,413.834523 133.761353,413 134.763566,413 C135.763818,413 136.540485,413.834523 136.540485,414.835951 L136.540485,434.261692 L148.829856,418.900571 C149.439813,418.121028 150.55382,418.009104 151.330486,418.621742 C152.107152,419.234381 152.218945,420.347733 151.608987,421.127276 L136.540485,439.995359 L136.540485,499.219029 Z" id="Fill-61" fill="#967B54"></path>
                        <path d="M401.03238,438.361025 C408.008064,435.045897 419.078934,434.764349 424.781341,440.496428 L472,489 L348,489 L401.03238,438.361025 Z" id="Fill-114" fill="#D2C8B5"></path>
                        <path d="M415,437 C418.609729,437.498178 421.947426,438.828606 424.353269,441.208138 L471,489 L433.374699,489 L415,437 Z" id="Fill-115" fill="#B2AA9A"></path>
                        <g id="Hanging-Arrow" transform="translate(364.000000, 211.000000)">
                            <path d="M36.0823784,2.76114771 C35.8006294,2.76114771 35.9129349,2.87221717 36.0823784,3.20347695 C36.1946839,2.87221717 36.3050192,2.76114771 36.0823784,2.76114771 M4.80626658,192.826319 C4.69199075,193.545348 3.9689006,194.096798 3.18670226,193.985729 C2.46164184,193.876608 1.90208434,193.157579 2.0143899,192.38399 C2.06758726,192.1638 14.1887061,114.280728 23.7386187,57.7210428 C25.3030154,48.4964321 26.7551065,39.9343411 28.0397245,32.5881682 C29.37951,25.0198565 30.6089603,18.5037817 31.6137995,13.3107975 C32.3959978,9.38829195 33.0658906,6.24132402 33.6234778,4.08618684 C34.2953409,1.43416 35.1327069,0 36.0823784,0 C37.0300796,0 37.9265538,1.43416 38.6516142,4.08618684 C39.2643691,6.24132402 40.1037053,9.44480097 40.996239,13.4764274 C42.0010781,17.8393136 43.1182229,23.2544367 44.4028408,29.3846913 C45.7997643,36.2339744 47.307023,43.7457771 48.8714197,51.5342792 C57.1386847,93.8985082 66.9683762,148.141323 66.9683762,148.252393 C67.1338791,149.025982 66.6334298,149.743062 65.8492612,149.852183 C65.1242007,150.017812 64.39717,149.520923 64.2296969,148.747334 C64.2296969,148.581704 54.512311,94.8942361 46.1347107,52.0857293 C44.5151463,44.0224765 43.0078876,36.4541648 41.6661317,29.9361414 C40.4386517,23.8604473 39.2643691,18.5037817 38.2595299,14.0843865 C37.4793019,10.4931408 36.7522712,7.56636315 36.137546,5.41122597 C35.6902941,7.45529369 35.0775392,10.3275109 34.3505085,13.8622476 C33.3456693,18.9441624 32.173357,25.5186948 30.8316011,33.0304975 C29.4366479,40.7079301 27.9845568,49.2135121 26.4753278,58.1614234 C16.9805827,114.391797 4.80626658,192.606129 4.80626658,192.826319" id="Fill-135" fill="#B2B5EA"></path>
                            <path d="M15.2400677,159.904121 L58.2798103,145.389272 C71.754627,140.82763 70.4460187,148.114485 65.590697,158.29136 L47.3702506,196.277571 C45.678682,199.836633 39.678328,203.062155 36.4048827,194.829618 C33.677974,187.935163 32.5868255,176.810643 31.4956771,176.534002 L14.9667995,172.472669 C6.51280489,170.359599 7.44037726,162.572436 15.2400677,159.904121" id="Fill-136" fill="#3135BA"></path>
                            <path d="M38.0877964,162.613457 C41.2394251,160.101919 45.7981726,160.593056 48.3821905,163.595731 C50.9146075,166.65426 50.4105057,171.130345 47.3144473,173.586029 L11.8725174,201.43059 C8.7784437,203.8882 4.16611056,203.397063 1.63567823,200.394388 C-0.898723409,197.335859 -0.446222569,192.859774 2.70342144,190.402164 L38.0877964,162.613457 Z" id="Fill-137" fill="#3135BA"></path>
                            <path d="M27.0656465,3 C29.0355099,3 30.7253825,4.11111111 31.569326,5.72192828 L36.4085971,5.72192828 C37.8164934,5.72192828 39,6.88790907 39,8.33215755 C39,9.72153635 37.8164934,10.8875171 36.4085971,10.8875171 L31.1741619,10.8875171 C30.2726317,12.1651969 28.7555192,13 27.0656465,13 C24.2518397,13 22,10.7777778 22,7.99902018 C22,5.22222222 24.2518397,3 27.0656465,3" id="Fill-138" fill="#787AD2"></path>
                        </g>
                        <path d="M558.055898,397 L614.944102,397 C618.277786,397 621,399.765865 621,403.086075 L621,431.968579 C621,435.288788 618.277786,438 614.944102,438 L558.055898,438 C554.722214,438 552,435.288788 552,431.968579 L552,403.086075 C552,399.765865 554.722214,397 558.055898,397" id="Fill-139" fill="#A1C2ED"></path>
                    </g>
                    <g id="Bronto-Body" transform="translate(633.500000, 131.000000) scale(-1, 1) translate(-633.500000, -131.000000) translate(554.000000, 66.000000)">
                        <path d="M0.784005548,11.0338001 C27.0388246,-0.626639599 59.6052489,-3.14601623 85.2096176,5.98447814 C98.8559284,10.8519554 109.854899,16.2879377 121.762791,24.2145759 C121.771122,24.2201229 200.099947,74.3731664 127.78894,129.540682 C127.78894,129.540682 97.6609736,109.471699 96.6529128,68.3491433 C89.9917429,44.7162163 56.0708509,32.0670888 25.6909727,41.5757719 L0.784005548,11.0338001 Z" id="Combined-Shape" fill="#F5A623"></path>
                        <path d="M117,69.1013993 C118.797053,66.5385177 121.261276,63.7689955 124.766606,62.5425694 C128.285388,61.2597868 132.428295,62.3359287 134.935561,64.8827084 C137.547745,67.3382441 138.69108,71.4012836 137.571957,74.9571141 C136.482426,78.5183118 133.872932,81.0624079 131.255368,83 L128.253105,77.858135 C130.523634,76.9430118 132.49017,75.4294357 133.267637,73.5079454 C134.10429,71.6320771 133.595842,69.3107237 132.057048,67.7998312 C130.529014,66.2567349 128.204682,65.7951479 126.359205,66.6941692 C124.443783,67.5636704 123.0664,69.5522518 122.216297,71.9809511 L117,69.1013993 Z" id="Fill-21" fill="#B36214"></path>
                        <path d="M149.318692,54.3695652 C149.318692,54.3695652 171.512663,87.5815217 135,116 C150.97966,98.1052609 156.082841,75.7731304 148.960724,53 L149.318692,54.3695652 Z" id="Fill-31" fill="#FFCB98"></path>
                    </g>
                    <g id="Rex" transform="translate(23.000000, 233.000000)">
                        <ellipse id="Oval" fill="#1946B9" cx="151.5" cy="279.96" rx="126.5" ry="10.96"></ellipse>
                        <path d="M240.07473,169.0078 C240.07473,169.0078 285.666025,166.882091 275.773883,232.813364 L292.651772,223.028626 L290.396379,231.00575 L294.697227,228.982897 L292.651772,232.813364 L299,235.7905 L256.846687,246 L249.966872,227.283854 L219,231.00575 L240.07473,169.0078 Z" id="Fill-1" fill="#80A838"></path>
                        <path d="M258.972324,174.853086 C249.521057,168.541106 239.674884,169.007743 239.674884,169.007743 L219,231 L235.722055,228.950606 C251.159251,216.11523 259.546732,195.076565 258.972324,174.853086" id="Fill-3" fill="#66862D"></path>
                        <polygon id="Fill-8" fill="#D2E4B2" points="256 44 257.562104 48 260 44"></polygon>
                        <polygon id="Fill-10" fill="#D2E4B2" points="265 46 266.562104 50 269 46"></polygon>
                        <polygon id="Fill-12" fill="#D2E4B2" points="274 46 275.562687 50 278 46"></polygon>
                        <polygon id="Fill-14" fill="#D2E4B2" points="284 43 286.345271 49 290 43"></polygon>
                        <polygon id="Fill-16" fill="#D2E4B2" points="278 56 277.99181 52 274 54.2545455"></polygon>
                        <polygon id="Fill-18" fill="#D2E4B2" points="273 56 271.876377 50 267 54.5086817"></polygon>
                        <polygon id="Fill-20" fill="#D2E4B2" points="264 55 262.874541 49 258 53.5086817"></polygon>
                        <path d="M234,110.503115 C241.336773,112.765644 248.454007,112.710367 255.370464,110.503115 C261.956672,108.402603 262.868608,98.8912134 263.748646,91 L266.683355,92.839377 L270.036505,91 L272.550898,94.5396095 L278,93.2644351 C278,93.2644351 269.20713,123.102371 255.999062,126.893584 L238.188153,132 L234,110.503115 Z" id="Fill-22" fill="#80A838"></path>
                        <path d="M244.076933,111.689307 C240.765728,111.626884 237.40613,111.082639 234,110 L238.154362,132 L249,128.791098 C245.863755,123.967015 244.013649,118.308033 244.076933,111.689307" id="Fill-24" fill="#66862D"></path>
                        <path d="M0,228.867594 C0,228.867594 29.9031612,229.923313 88.7316457,250.982334 C88.7316457,250.982334 211.207278,294.86627 241.855731,207.470667 C241.855731,207.470667 256.269787,185.791197 239.669415,117.753627 C239.669415,117.753627 230.703041,92.341913 236.236499,66.3364759 C252.590981,70.2787184 284.886319,77.6725708 285.599207,56.0980998 C267.144183,53.8549352 250.932659,51.7129516 238.769728,42.6677482 C258.219744,46.3369928 277.206574,49.0173359 291.973261,42.6677482 C291.973261,42.6677482 299.689222,12.2580721 272.816787,3.65959252 C264.258322,0.920068053 246.174992,-0.469739479 229.07903,0.143074007 C220.27277,0.458071593 203.005257,4.51294961 190.23618,42.8815647 C190.23618,42.8815647 146.197257,181.864227 125.76559,194.653129 C95.5441073,227.483514 43.8406877,201.476168 0,227.055881 L0,228.867594 Z" id="Fill-26" fill="#8EBB3E"></path>
                        <g id="Group-30" transform="translate(0.000000, 221.000000)">
                            <mask id="mask-4" fill="white">
                                <use xlink:href="#path-3"></use>
                            </mask>
                            <g id="Clip-29"></g>
                            <path d="M193.475845,8.84500455 C146.460458,54.1127318 115.165716,3.29136818 -0.000380645161,7.19568636 L-0.000380645161,7.75477727 C-0.000380645161,7.75477727 30.0896194,8.78536818 88.8288774,29.3431409 C88.8288774,29.3431409 197.322265,67.3016864 235.556168,0.540640909 C222.083232,4.63505 207.989845,7.40255 193.475845,8.84500455" id="Fill-28" fill="#6CB344" mask="url(#mask-4)"></path>
                        </g>
                        <path d="M217.469379,122.835255 C216.944072,192.130656 185.888362,249.203398 122,259.213284 C160.425183,265.645761 220.947406,265.470416 241.184062,207.560975 C241.184062,207.560975 255.58355,185.91736 239.067662,117.992315 C239.067662,117.992315 235.377236,107.44496 234.224215,93 C222.769862,98.2965487 218.487754,112.61 217.469379,122.835255" id="Fill-31" fill="#C1DA96"></path>
                        <path d="M170.80626,244.594646 C180.864943,238.441683 188.007956,261.030593 194.488489,253.154876 C216.589499,247.883365 225.258683,208.913958 212.159047,194.141491 C228.70206,161.42065 219.837359,117.493308 233.447617,95.4550669 C233.447617,94.8891013 233.620355,93.9866157 234,93 C223.650889,98.8221797 219.677908,112.34608 218.702221,122.147228 C218.223869,185.254302 192.561793,238.248566 140,255 C141.408481,254.722753 142.815065,254.455067 144.231139,254.154876 C153.722254,252.24283 161.315145,248.418738 170.80626,244.594646" id="Fill-33" fill="#B4CB8C"></path>
                        <path d="M136,232.640191 L164.055107,244.187857 L150.029451,281 L209.749516,281 L203.387676,275.288498 L209.749516,272.543986 L200.423119,270.741161 L207.206298,265.555164 L177.536058,268.104051 C177.536058,268.104051 214.835951,240.254247 213.985681,217.12631 C213.985681,217.12631 208.901144,196.132994 183.04573,182 L136,232.640191 Z" id="Fill-35" fill="#8EBB3E"></path>
                        <path d="M194,134.679119 C209.743566,162.612507 234.493596,139.029509 249.840072,158 L249.840072,151.241527 L253.676691,153.766526 L253.676691,148.712757 L259,148.908873 C251.936784,132.633097 228.585202,136.502625 208.454462,121 L194,134.679119 Z" id="Fill-37" fill="#8EBB3E"></path>
                        <path d="M225,18.5751962 C225.164994,16.290683 225.663813,13.6247623 227.363635,11.544715 C229.051945,9.42338131 231.987303,8.55440124 234.45262,9.21891541 C236.950552,9.7890607 239.137681,11.9221905 239.749694,14.5763151 C240.384728,17.2245417 239.71516,19.8019916 238.817286,22 L235.097247,19.8845644 C236.156278,18.4611672 236.80858,16.7743235 236.582193,15.2722856 C236.409525,13.7781117 235.25073,12.5080639 233.752355,12.1305884 C232.253979,11.7314867 230.659677,12.3075301 229.855811,13.5638157 C229.000145,14.8259994 228.883114,16.5934498 229.251473,18.439541 L225,18.5751962 Z" id="Fill-39" fill="#597627"></path>
                        <path d="M289.891332,37 C289.891332,37 292.997205,9.75757576 266,6 C278.264854,10.5072121 285.999912,21.1505455 289.891332,37" id="Fill-41" fill="#C1DA96"></path>
                        <path d="M175,207.942308 C175,214.05 167.389667,219 158,219 C148.610333,219 141,214.05 141,207.942308 C141,201.834615 155.221444,194 164.611111,194 C174.000778,194 175,201.834615 175,207.942308" id="Fill-43" fill="#80A838"></path>
                        <path d="M189,181.038087 C189,185.435836 183.404939,189 176.500977,189 C169.597015,189 164,185.435836 164,181.038087 C164,176.640338 174.457529,171 181.361491,171 C188.265453,171 189,176.640338 189,181.038087" id="Fill-45" fill="#80A838"></path>
                    </g>
                    <g id="Roller" transform="translate(262.000000, 159.000000)">
                        <path d="M47.4696259,119.198257 L52.41029,118.699083 L48.0249997,130.328228 L43.6500739,129.319616 L47.4696259,119.198257 Z M54.920644,99.4539438 L72.3289039,53.3241231 C73.752997,49.8338957 74.215556,47.8270719 73.7013793,46.3481508 C73.176774,44.8155789 71.4598377,43.2900724 68.4209388,40.836385 L67.9431933,40.4221825 C64.3639243,37.5107877 60.771921,34.5442017 57.2011475,31.6868335 C55.3198907,30.1932677 53.2755542,28.4490348 51.94387,26.2839097 C50.3864815,23.8246125 49.7272957,21.0217001 51.0852177,17.7690352 L51.1289182,17.7048628 C52.2871384,15.1690936 53.7327664,13.5339253 55.3683976,12.5975681 C57.1072854,11.5834734 58.9360413,11.3413436 60.9135291,11.5753816 L61.2112041,11.6308638 L70.4967363,15.2366406 C71.6653556,15.6855731 72.1935075,16.9370775 71.7907337,18.0851804 C71.3342031,19.245721 70.0164646,19.7842301 68.8474728,19.3333815 L60.06409,15.9680413 C59.1880383,15.8579504 58.3015052,15.9726085 57.5869198,16.3938765 C56.7184425,16.9007359 55.9430072,17.8965767 55.177452,19.5109081 C54.5325168,21.1574713 54.8700111,22.615058 55.6915991,23.9208801 C56.7427577,25.5201227 58.4511985,26.9916025 60.009294,28.2676064 C63.7845419,31.309929 67.29732,34.1785705 70.8139644,37.0464604 L71.2809088,37.405096 C74.925108,40.3615361 77.0675939,42.3113909 77.913571,44.9089725 C78.8368401,47.6048743 78.3017618,50.415228 76.4517319,54.9447164 L58.7304618,101.938918 L54.920644,99.4539438 Z M36.3796109,148.585479 L40.6290295,149.941253 L15.5944227,216.329347 C14.5167542,215.457126 13.2472594,214.599273 11.7859383,213.75579 L36.3796109,148.585479 Z M10.3843128,230.145792 L5.15996268,244 C4.69456422,245.104598 3.38725434,245.696758 2.27469729,245.236928 C2.27469729,245.236928 0.513368284,243.493362 0.980699923,242.388388 L6.47737374,227.822855 L10.3843128,230.145792 Z" id="Combined-Shape" fill="#766C96"></path>
                        <path d="M73.3294848,5.98293301 L112.808395,30.8112546 C115.508571,32.5452523 116.296205,36.1789539 114.609835,38.8637899 L111.683487,43.3930944 C109.997117,46.0779304 106.342655,46.8591171 103.642479,45.1823275 L64.2191197,20.2987705 C61.4653769,18.5647728 60.677743,14.9863066 62.4196639,12.2462352 L65.2884766,7.7721661 C66.9748464,5.0320947 70.6312931,4.25090803 73.3294848,5.98293301" id="Fill-55" fill="#787AD2" transform="translate(88.495579, 25.563610) rotate(-11.000000) translate(-88.495579, -25.563610) "></path>
                    </g>
                    <g id="Trike" transform="translate(579.000000, 401.000000) scale(-1, 1) translate(-579.000000, -401.000000) translate(420.000000, 281.000000)">
                        <ellipse id="Oval" fill="#1946B9" cx="139.5" cy="228.96" rx="104.5" ry="10.96"></ellipse>
                        <path d="M219.442267,188 C218.296361,196.501258 221.336949,218.802552 222,224.827647 C222,224.827647 203.490553,236.348488 186.861791,225.001753 L182,193.346261 L219.442267,188 Z" id="Fill-8" fill="#4C7DB6"></path>
                        <path d="M220,201.639466 C219.594841,196.219098 219.43207,191.149439 219.867306,188 L182,193.278001 L186.918521,224.529325 C190.610951,226.987762 194.393612,228.359348 198.054195,229 C200.207375,216.798094 208.68917,206.512937 220,201.639466" id="Fill-10" fill="#3E6590"></path>
                        <path d="M68.3975737,191 C68.3975737,191 64.9324923,219.325655 68.9145415,226.707697 C68.9145415,226.707697 80.5934726,233.025773 105.070849,230.331221 C110.827356,226.554941 108.729794,211.527974 108.141219,198.657359 L68.3975737,191 Z" id="Fill-12" fill="#548BCA"></path>
                        <path d="M155.067966,204 C155.067966,204 153.950472,226.699145 160.77805,231.061561 C160.77805,231.061561 180.598695,235.983946 192.043384,230.140725 C194.253852,227.475989 192.222043,216.470397 190.104408,205.295926 L155.067966,204 Z" id="Fill-14" fill="#548BCA"></path>
                        <path d="M0,179.292837 C0,179.292837 24.8107906,218.193007 66.8118141,210.672237 C66.8118141,210.672237 78.7527987,207.720291 117.4361,216.639536 C117.4361,216.639536 235.82565,231.964646 223.033245,159.74412 C221.344479,140.714987 219.755984,95.7964402 115.777239,100.317709 C45.0003427,104.576543 76.0877145,202.550862 0,179.292837" id="Fill-16" fill="#548BCA"></path>
                        <path d="M223.071104,157.279267 C221.510412,139.720812 220.02362,99.1842577 130.918141,100.012503 C130.724594,101.976729 130.170347,103.733454 128.896456,105.008354 C108.618018,118.51878 86.6522036,142.159829 100.165297,157.360157 C108.591626,166.836623 122.581548,165.837805 131.718722,173.85473 C138.401369,179.717513 135.973235,188.928448 140.122177,195.839287 C144.454108,203.052585 158.343739,204.366172 165.643976,201.775926 C174.028076,198.800572 178.521884,190.546252 187.762869,188.251432 C191.644364,187.287783 216.803703,190.136526 217.030681,189.827033 C222.882835,181.869896 225.559061,171.296137 223.071104,157.279267" id="Fill-18" fill="#4C7DB6"></path>
                        <path d="M81,174.480868 C81,178.63261 75.6273881,182 69,182 C62.3708619,182 57,178.63261 57,174.480868 C57,170.32741 67.0382091,165 73.6673472,165 C80.2947353,165 81,170.32741 81,174.480868" id="Fill-20" fill="#4471A4"></path>
                        <path d="M102,186.8085 C102,190.228 97.7478559,193 92.4991424,193 C87.2521441,193 83,190.228 83,186.8085 C83,183.38725 90.948542,179 96.193825,179 C101.440823,179 102,183.38725 102,186.8085" id="Fill-22" fill="#4471A4"></path>
                        <path d="M101,171.692139 C101,174.62345 97.195366,177 92.4991048,177 C87.804634,177 84,174.62345 84,171.692139 C84,168.760828 91.1115324,165 95.8060032,165 C100.500474,165 101,168.760828 101,171.692139" id="Fill-24" fill="#4471A4"></path>
                        <path d="M251.776885,114 C251.776885,114 272.767512,90.9639921 261.855398,55.8979904 C261.452608,54.6038922 259.634798,54.7557236 259.219748,56.0498219 C256.139279,65.601079 246.938148,88.1127388 228,90.7627271 C228,90.7627271 228.789819,110.827429 251.776885,114 Z" id="Fill-1" fill="#E2E2E2"></path>
                        <g id="Group-28" transform="translate(112.000000, 35.000000)">
                            <mask id="mask-6" fill="white">
                                <use xlink:href="#path-5"></use>
                            </mask>
                            <g id="Clip-27"></g>
                            <path d="M167.283865,135.560228 C166.502845,130.701407 161.055008,128.676313 154.018804,127.872955 C156.000314,138.851007 143.7146,144.996607 134.700396,147.847913 C121.01762,152.193428 107.185661,153.197186 92.9588041,151.528944 C82.447498,150.29666 71.2938245,148.958902 61.6144367,154.334544 C55.0784367,157.968113 49.9026408,164.932892 41.9151714,165.356544 C36.3497429,165.644839 30.0998245,161.629807 28.3412122,156.356123 C26.0876612,149.589986 31.0423143,142.588292 27.7620286,135.964544 C24.6361918,129.653702 17.2314163,126.069355 11.5413755,122.434028 C7.31157959,119.73566 2.63072245,116.434334 1.20031429,111.313586 C-0.739073469,104.362871 2.69215102,96.5824284 6.46913061,90.8727863 C9.1246,86.8524811 12.5031714,83.3120811 15.007702,79.1986074 C18.0545592,74.1763021 18.9514163,68.8639442 18.1475796,63.0365232 C16.968151,54.4966705 13.3719469,44.7016811 18.1475796,36.63646 C22.9372531,28.5431126 33.5556204,27.38466 41.8888449,25.6267653 C48.2089673,24.2960389 54.1236612,22.0055021 58.5272122,17.0623021 C61.1879469,14.0809126 63.4994163,10.7883758 66.193498,7.82456526 C72.1310082,1.29398632 84.529049,-4.52464526 90.3349265,5.35120737 C94.6243959,12.6447126 91.6688041,22.4344284 96.7954571,29.4185442 C102.424069,37.0864811 113.670763,34.96646 121.040437,40.14346 C127.952029,44.9917337 126.583049,55.5039442 129.921253,62.25426 C137.292682,77.1594495 158.134518,75.8937653 166.150069,90.0043863 C173.370559,102.691113 172.966886,121.590239 168.610722,135.169976 C168.431702,135.73426 167.733171,135.850281 167.283865,135.560228 Z" id="Fill-26" fill="#548BCA" mask="url(#mask-6)"></path>
                        </g>
                        <path d="M158.288294,60.6119794 L294.263432,30.704166 C297.910357,29.923242 301.502704,32.2147414 302.276531,35.9044103 L308.851131,66.4255251 C309.624958,70.0599771 307.303479,73.6924572 303.711131,74.4753532 L167.679467,104.381195 C164.091018,105.22128 160.49867,102.872591 159.722894,99.1829224 L153.148294,68.6618076 C152.376416,65.0293275 154.695946,61.3948755 158.288294,60.6119794" id="Fill-94" fill="#CACCED" transform="translate(231.000000, 67.551671) scale(-1, 1) rotate(-26.000000) translate(-231.000000, -67.551671) "></path>
                        <path d="M282.848452,142 C282.848452,142 301.982362,121.361009 292.230445,89.8988974 C291.828812,88.60536 289.989758,88.7554871 289.55818,90.0437875 C286.604067,98.8785956 278.143363,118.648246 261,121.01013 C261,121.01013 261.725757,139.135365 282.848452,142 Z" id="Fill-35" fill="#F5F6F9"></path>
                        <path d="M220.77582,114 C220.77582,114 241.768804,90.9670762 230.854624,55.9003944 C230.451822,54.60274 228.637462,54.7563399 228.22065,56.0486977 C225.141842,65.6001401 215.936943,88.1122366 197,90.7640419 C197,90.7640419 197.791593,110.829133 220.77582,114 Z" id="Fill-31" fill="#F5F6F9"></path>
                        <path d="M230,158 C232.547564,160.105721 235.102088,162.190849 237.832367,163.898423 C240.557425,165.587119 243.592227,166.745523 246.639211,166.170611 C249.686195,165.68494 252.726218,164.135252 256.00464,163.344105 C259.267401,162.46715 262.702436,162.24405 266,162.664508 C262.678074,162.915066 259.467517,163.575786 256.399652,164.624356 C253.314385,165.628306 250.420534,167.243208 246.907193,167.866172 C245.158353,168.137324 243.292923,167.998316 241.62065,167.431985 C239.948376,166.857073 238.434455,166.004144 237.073666,165.00191 C234.334687,163.012887 232.067285,160.567367 230,158" id="Fill-29" fill="#325379"></path>
                        <path d="M185,128.311004 C185.006952,125.754026 185.364971,122.745407 187.141162,120.290916 C188.898235,117.792999 192.179496,116.58573 195.043648,117.127698 C197.939083,117.56023 200.605107,119.754159 201.515796,122.66029 C202.449078,125.557736 201.891195,128.4795 201.039596,131 L196.626926,128.946774 C197.723576,127.275706 198.335337,125.345812 197.956462,123.692114 C197.640154,122.043628 196.216768,120.723449 194.478812,120.424671 C192.735642,120.101575 190.964665,120.8711 190.14435,122.337194 C189.266682,123.811973 189.273634,125.78703 189.841945,127.812463 L185,128.311004 Z" id="Fill-37" fill="#325379"></path>
                    </g>
                </g>
            </g>
        </g>
    </g>
</svg>