<?xml version="1.0" encoding="UTF-8"?>
<svg width="105px" height="74px" viewBox="0 0 105 74" version="1.1" xmlns="http://www.w3.org/2000/svg" xmlns:xlink="http://www.w3.org/1999/xlink">
    <!-- Generator: Sketch 52.4 (67378) - http://www.bohemiancoding.com/sketch -->
    <title>Icon__development</title>
    <desc>Created with Sketch.</desc>
    <g id="Welcome" stroke="none" stroke-width="1" fill="none" fill-rule="evenodd">
        <g id="Mobile-Portrait" transform="translate(-108.000000, -990.000000)">
            <g id="Our-Services" transform="translate(-91.000000, 585.000000)">
                <g id="Group-18" transform="translate(60.000000, 45.000000)">
                    <g id="Development" transform="translate(192.000000, 442.500000) scale(-1, 1) translate(-192.000000, -442.500000) translate(95.000000, 360.000000)">
                        <g id="Icon__development" transform="translate(97.500000, 37.000000) scale(-1, 1) translate(-97.500000, -37.000000) translate(45.000000, 0.000000)">
                            <path d="M3.03344484,2 L101.955579,2 C103.622444,2 105,3.36871831 105,5.04870523 L105,70.9512948 C105,72.6202911 103.622444,74 101.955579,74 L3.03344484,74 C1.36657905,74 0,72.6202911 0,70.9512948 L0,5.04870523 C0,3.36871831 1.36657905,2 3.03344484,2" id="Fill-23" fill="#3135BA"></path>
                            <path d="M5.50484032,7 C6.32802938,7 7,6.3279546 7,5.50467394 C7,4.6720454 6.32802938,4 5.50484032,4 C4.68131746,4 4,4.6720454 4,5.50467394 C4,6.3279546 4.68131746,7 5.50484032,7" id="Fill-40" fill="#EBEBEB"></path>
                            <path d="M10.5,7 C11.3261889,7 12,6.3279546 12,5.50467394 C12,4.6720454 11.3261889,4 10.5,4 C9.67414601,4 9,4.6720454 9,5.50467394 C9,6.3279546 9.67414601,7 10.5,7" id="Fill-41" fill="#EBEBEB"></path>
                            <path d="M15.4953261,7 C16.3186067,7 17,6.3279546 17,5.50467394 C17,4.6720454 16.3186067,4 15.4953261,4 C14.6717116,4 14,4.6720454 14,5.50467394 C14,6.3279546 14.6717116,7 15.4953261,7" id="Fill-43" fill="#EBEBEB"></path>
                            <rect id="Rectangle" fill="#DBD8F1" x="4" y="12" width="97" height="58"></rect>
                            <path d="M33.4187106,7 L76.5816803,7 C77.3576904,7 78,7.67700755 78,8.50597117 C78,9.33452299 77.3576904,10 76.5816803,10 L33.4187106,10 C32.6430915,10 32,9.33452299 32,8.50597117 C32,7.67700755 32.6430915,7 33.4187106,7" id="Fill-45" fill="#FEFEFE"></path>
                            <g id="Group-10" transform="translate(14.000000, 0.000000)">
                                <g id="Cog-Wheel" transform="translate(48.000000, 0.000000)">
                                    <path d="M24.7992426,5.43932159 C26.4174865,5.83179648 27.9354547,6.51819529 29.3583337,7.35155607 L32.4945458,5.09698666 C33.2275964,4.60768977 34.1594698,4.46072781 34.7974314,5.09698666 L34.8458404,5.14539766 L36.8548141,7.15445414 L36.904952,7.20459411 C37.5411847,7.84085296 37.4426378,8.8211757 36.904952,9.55598551 L34.7006133,12.6923267 C35.5322109,14.0651243 36.1684436,15.6332949 36.5609023,17.2516055 L40.383485,17.8878643 C41.2652204,18.0348263 42,18.6226741 42,19.5061749 L42,19.6029969 L42,22.4454141 L42,22.4955541 C42,23.4257369 41.2652204,24.0153137 40.383485,24.1622756 L36.5609023,24.7985345 C36.1684436,26.4168451 35.5322109,27.9348757 34.7006133,29.3560843 L36.904952,32.4924255 C37.4426378,33.2289643 37.5411847,34.159147 36.904952,34.7971349 L36.904952,34.8455459 L34.8458404,36.9047423 L34.7974314,36.9047423 C34.1594698,37.5410012 33.2275964,37.4441792 32.4945458,36.9047423 L29.3583337,34.6985839 C27.9354547,35.5319447 26.4174865,36.1682035 24.7992426,36.5606784 L24.1630099,40.3834184 C24.016054,41.2669192 23.4282304,42 22.496357,42 L22.447948,42 L19.6056477,42 L19.5053719,42 C18.6253653,42 18.0358128,41.2669192 17.8905858,40.3834184 L17.2526242,36.5606784 C15.6343803,36.1682035 14.0680031,35.5319447 12.6935331,34.6985839 L9.55904993,36.9047423 C8.82427037,37.4441792 7.84225909,37.5410012 7.20602643,36.9047423 L7.15588853,36.9047423 L5.14691475,34.8455459 L5.09850574,34.7971349 C4.46054419,34.159147 4.6075001,33.2289643 5.09850574,32.4924255 L7.35125345,29.3560843 C6.46951797,27.9348757 5.83328531,26.4168451 5.44082658,24.7985345 L1.66838184,24.1622756 C0.736508459,24.0153137 0,23.4257369 0,22.4955541 L0,22.4454141 L0,19.6029969 L0,19.5061749 C0,18.6226741 0.736508459,18.0348263 1.66838184,17.8878643 L5.44082658,17.2516055 C5.83328531,15.6332949 6.46951797,14.0651243 7.35125345,12.6923267 L5.09850574,9.55598551 C4.5590911,8.8211757 4.46054419,7.84085296 5.09850574,7.20459411 L5.14691475,7.15445414 L7.15588853,5.14539766 L7.20602643,5.09698666 C7.84225909,4.46072781 8.77240357,4.60768977 9.50891203,5.09698666 L12.6935331,7.35155607 C14.0680031,6.51819529 15.5859713,5.83179648 17.2024863,5.43932159 L17.8905858,1.66499259 C18.0358128,0.784949778 18.6253653,0 19.5053719,0 L19.5555098,0 L22.447948,0 L22.496357,0 C23.3780925,0 23.9659161,0.784949778 24.1146009,1.66499259 L24.7992426,5.43932159 Z" id="Fill-106" fill="#B2B5EA"></path>
                                    <path d="M28,21.5259585 C28,25.1064963 25.1064963,28 21.5259585,28 C17.9454207,28 15,25.1064963 15,21.5259585 C15,17.9436901 17.9454207,15 21.5259585,15 C25.1064963,15 28,17.9436901 28,21.5259585 Z" id="Fill-107" fill="#DBD8F1"></path>
                                </g>
                                <g id="Cog-Wheel" transform="translate(0.000000, 43.000000)">
                                    <path d="M13.5805376,2.97867611 C14.4667188,3.19360283 15.2979871,3.5694879 16.0771827,4.02585213 L17.7946322,2.79120698 C18.1960647,2.52325869 18.7063763,2.44277952 19.0557362,2.79120698 L19.0822459,2.81771777 L20.1823982,3.91791536 L20.2098547,3.94537296 C20.5582678,4.29380043 20.5043017,4.83064383 20.2098547,5.23303968 L19.0027168,6.95055986 C19.4581155,7.70232999 19.8065286,8.56109007 20.0214465,9.44730776 L22.1147656,9.79573522 C22.5976207,9.87621439 23,10.1981311 23,10.6819529 L23,10.7349745 L23,12.2915363 L23,12.3189939 C23,12.8283797 22.5976207,13.1512432 22.1147656,13.2317224 L20.0214465,13.5801498 C19.8065286,14.4663675 19.4581155,15.29767 19.0027168,16.0759509 L20.2098547,17.7934711 C20.5043017,18.1968138 20.5582678,18.7061996 20.2098547,19.0555739 L20.2098547,19.0820846 L19.0822459,20.2097398 L19.0557362,20.2097398 C18.7063763,20.5581673 18.1960647,20.5051457 17.7946322,20.2097398 L16.0771827,19.0016055 C15.2979871,19.4579697 14.4667188,19.8063972 13.5805376,20.0213239 L13.2321245,22.1147291 C13.1516486,22.598551 12.8297452,23 12.3194336,23 L12.2929239,23 L10.7364261,23 L10.6815132,23 C10.1996048,23 9.87675462,22.598551 9.79722554,22.1147291 L9.44786564,20.0213239 C8.56168444,19.8063972 7.70390648,19.4579697 6.95122052,19.0016055 L5.23471782,20.2097398 C4.83233853,20.5051457 4.29457045,20.5581673 3.94615733,20.2097398 L3.91870086,20.2097398 L2.81854855,19.0820846 L2.79203886,19.0555739 C2.44267896,18.7061996 2.52315482,18.1968138 2.79203886,17.7934711 L4.02568641,16.0759509 C3.54283127,15.29767 3.19441815,14.4663675 2.97950027,13.5801498 L0.913637673,13.2317224 C0.403326061,13.1512432 0,12.8283797 0,12.3189939 L0,12.2915363 L0,10.7349745 L0,10.6819529 C0,10.1981311 0.403326061,9.87621439 0.913637673,9.79573522 L2.97950027,9.44730776 C3.19441815,8.56109007 3.54283127,7.70232999 4.02568641,6.95055986 L2.79203886,5.23303968 C2.49664512,4.83064383 2.44267896,4.29380043 2.79203886,3.94537296 L2.81854855,3.91791536 L3.91870086,2.81771777 L3.94615733,2.79120698 C4.29457045,2.44277952 4.80393529,2.52325869 5.20726135,2.79120698 L6.95122052,4.02585213 C7.70390648,3.5694879 8.53517474,3.19360283 9.42040917,2.97867611 L9.79722554,0.911781657 C9.87675462,0.42985345 10.1996048,0 10.6815132,0 L10.7089697,0 L12.2929239,0 L12.3194336,0 C12.8022887,0 13.1241922,0.42985345 13.2056148,0.911781657 L13.5805376,2.97867611 Z" id="Fill-106" fill="#B2B5EA"></path>
                                    <path d="M15,11.5139776 C15,13.4419595 13.4419595,15 11.5139776,15 C9.58599574,15 8,13.4419595 8,11.5139776 C8,9.5850639 9.58599574,8 11.5139776,8 C13.4419595,8 15,9.5850639 15,11.5139776 Z" id="Fill-107" fill="#DBD8F1"></path>
                                </g>
                                <rect id="Rectangle" fill="#B4B6EA" x="29" y="57" width="37" height="2" rx="1"></rect>
                                <rect id="Rectangle" fill="#FFFFFF" x="29" y="50" width="23" height="2" rx="1"></rect>
                                <rect id="Rectangle" fill="#B4B6EA" transform="translate(22.500000, 29.000000) scale(-1, 1) translate(-22.500000, -29.000000) " x="4" y="28" width="37" height="2" rx="1"></rect>
                                <path d="M19,21 L40,21 C40.5522847,21 41,21.4477153 41,22 L41,22 C41,22.5522847 40.5522847,23 40,23 L30.0839844,23 L19,23 C18.4477153,23 18,22.5522847 18,22 L18,22 C18,21.4477153 18.4477153,21 19,21 Z" id="Rectangle" fill="#FFFFFF" transform="translate(29.500000, 22.000000) scale(-1, 1) translate(-29.500000, -22.000000) "></path>
                            </g>
                        </g>
                    </g>
                </g>
            </g>
        </g>
    </g>
</svg>