<?xml version="1.0" encoding="UTF-8"?>
<svg width="141px" height="77px" viewBox="0 0 141 77" version="1.1" xmlns="http://www.w3.org/2000/svg" xmlns:xlink="http://www.w3.org/1999/xlink">
    <!-- Generator: Sketch 52.4 (67378) - http://www.bohemiancoding.com/sketch -->
    <title>Icon__branding</title>
    <desc>Created with Sketch.</desc>
    <g id="Welcome" stroke="none" stroke-width="1" fill="none" fill-rule="evenodd">
        <g id="Mobile-Portrait" transform="translate(-92.000000, -1195.000000)">
            <g id="Our-Services" transform="translate(-91.000000, 585.000000)">
                <g id="Group-18" transform="translate(60.000000, 45.000000)">
                    <g id="Branding" transform="translate(97.000000, 565.000000)">
                        <g id="Icon__branding" transform="translate(26.000000, 0.000000)">
                            <g id="Group-17" transform="translate(0.000000, 2.000000)">
                                <path d="M8,0.0974576271 L41,0.0974576271 C48.1797017,0.0974576271 54,5.91775588 54,13.0974576 L54,56 C54,63.1797017 48.1797017,69 41,69 L8,69 C3.581722,69 4.46530217e-15,65.418278 0,61 L-8.8817842e-16,8.09745763 C-1.42926142e-15,3.67917963 3.581722,0.0974576271 8,0.0974576271 Z" id="Rectangle" fill="#3135BA"></path>
                                <rect id="Rectangle" fill="#FFFFFF" x="11.7642857" y="26.1186441" width="30.5678571" height="16.7627119"></rect>
                                <rect id="Shape" fill="#DBD8F1" fill-rule="nonzero" x="30.6642857" y="0" width="6.94285714" height="68.9025424"></rect>
                                <path d="M31.5205714,31.4300847 L22.5527143,31.4300847 C22.1532941,31.4300847 21.8295,31.1028353 21.8295,30.6991525 C21.8295,30.2954698 22.1532941,29.9682203 22.5527143,29.9682203 L31.5205714,29.9682203 C31.9199916,29.9682203 32.2437857,30.2954698 32.2437857,30.6991525 C32.2437857,31.1028353 31.9199916,31.4300847 31.5205714,31.4300847 Z" id="Path" fill="#DBD8F1"></path>
                                <path d="M31.7134286,35.2309322 L18.2134286,35.2309322 C17.8140084,35.2309322 17.4902143,34.9036827 17.4902143,34.5 C17.4902143,34.0963173 17.8140084,33.7690678 18.2134286,33.7690678 L31.7134286,33.7690678 C32.1128488,33.7690678 32.4366429,34.0963173 32.4366429,34.5 C32.4366429,34.9036827 32.1128488,35.2309322 31.7134286,35.2309322 Z" id="Path" fill="#DBD8F1"></path>
                                <path d="M31.7134286,39.0317797 L18.2134286,39.0317797 C17.8140084,39.0317797 17.4902143,38.7045302 17.4902143,38.3008475 C17.4902143,37.8971647 17.8140084,37.5699153 18.2134286,37.5699153 L31.7134286,37.5699153 C32.1128488,37.5699153 32.4366429,37.8971647 32.4366429,38.3008475 C32.4366429,38.7045302 32.1128488,39.0317797 31.7134286,39.0317797 Z" id="Path" fill="#DBD8F1"></path>
                            </g>
                            <g id="Combined-Shape-2" transform="translate(88.000000, 0.000000)" fill="#3135BA" fill-rule="nonzero">
                                <path d="M4.78666352,53.975854 L0.72080206,53.975854 C0.429213899,53.9755927 0.16645115,53.7965122 0.0548998868,53.5220222 C-0.0566513766,53.2475323 0.00494587046,52.9316124 0.211001697,52.7214075 L51.7200761,0.214982861 C51.9263883,0.00503918877 52.2364578,-0.0577202705 52.5058646,0.0559357337 C52.7752714,0.169591738 52.9510356,0.437312274 52.9512921,0.734402099 L52.9512921,53.2408268 C52.9512921,53.6467711 52.6283033,53.975854 52.2298765,53.975854 L48.2121094,53.975854 C48.229013,53.9134533 48.2380434,53.8477245 48.2380434,53.7798467 L48.2380434,49.5656907 C48.2380434,49.1597463 47.9150547,48.8306634 47.5166278,48.8306634 C47.118201,48.8306634 46.7952122,49.1597463 46.7952122,49.5656907 L46.7952122,53.7798467 C46.7952122,53.8477245 46.8042427,53.9134533 46.8211463,53.975854 L43.5950495,53.975854 C43.6119531,53.9134533 43.6209835,53.8477245 43.6209835,53.7798467 L43.6209835,52.2117887 C43.6209835,51.8058443 43.2979948,51.4767614 42.8995679,51.4767614 C42.5011411,51.4767614 42.1781523,51.8058443 42.1781523,52.2117887 L42.1781523,53.7798467 C42.1781523,53.8477245 42.1871828,53.9134533 42.2040864,53.975854 L38.8818008,53.975854 C38.8987045,53.9134533 38.9077349,53.8477245 38.9077349,53.7798467 L38.9077349,49.5656907 C38.9077349,49.1597463 38.5847461,48.8306634 38.1863193,48.8306634 C37.7878925,48.8306634 37.4649037,49.1597463 37.4649037,49.5656907 L37.4649037,53.7798467 C37.4649037,53.8477245 37.4739341,53.9134533 37.4908378,53.975854 L34.1685522,53.975854 C34.1854558,53.9134533 34.1944863,53.8477245 34.1944863,53.7798467 L34.1944863,52.2117887 C34.1944863,51.8058443 33.8714975,51.4767614 33.4730707,51.4767614 C33.0746438,51.4767614 32.7516551,51.8058443 32.7516551,52.2117887 L32.7516551,53.7798467 C32.7516551,53.8477245 32.7606855,53.9134533 32.7775891,53.975854 L29.5514923,53.975854 C29.5683959,53.9134533 29.5774264,53.8477245 29.5774264,53.7798467 L29.5774264,49.5656907 C29.5774264,49.1597463 29.2544376,48.8306634 28.8560108,48.8306634 C28.4575839,48.8306634 28.1345952,49.1597463 28.1345952,49.5656907 L28.1345952,53.7798467 C28.1345952,53.8477245 28.1436256,53.9134533 28.1605292,53.975854 L24.8382437,53.975854 C24.8551473,53.9134533 24.8641777,53.8477245 24.8641777,53.7798467 L24.8641777,52.2117887 C24.8641777,51.8058443 24.541189,51.4767614 24.1427621,51.4767614 C23.7443353,51.4767614 23.4213465,51.8058443 23.4213465,52.2117887 L23.4213465,53.7798467 C23.4213465,53.8477245 23.430377,53.9134533 23.4472806,53.975854 L20.2211838,53.975854 C20.2380874,53.9134533 20.2471178,53.8477245 20.2471178,53.7798467 L20.2471178,49.5656907 C20.2471178,49.1597463 19.9241291,48.8306634 19.5257022,48.8306634 C19.1272754,48.8306634 18.8042866,49.1597463 18.8042866,49.5656907 L18.8042866,53.7798467 C18.8042866,53.8477245 18.8133171,53.9134533 18.8302207,53.975854 L15.5079352,53.975854 C15.5248388,53.9134533 15.5338692,53.8477245 15.5338692,53.7798467 L15.5338692,52.2117887 C15.5338692,51.8058443 15.2108804,51.4767614 14.8124536,51.4767614 C14.4140268,51.4767614 14.091038,51.8058443 14.091038,52.2117887 L14.091038,53.7798467 C14.091038,53.8477245 14.1000684,53.9134533 14.1169721,53.975854 L10.7946865,53.975854 C10.8115901,53.9134533 10.8206206,53.8477245 10.8206206,53.7798467 L10.8206206,49.5656907 C10.8206206,49.1597463 10.4976318,48.8306634 10.099205,48.8306634 C9.70077813,48.8306634 9.37778936,49.1597463 9.37778936,49.5656907 L9.37778936,53.7798467 C9.37778936,53.8477245 9.38681981,53.9134533 9.40372342,53.975854 L6.17762662,53.975854 C6.19453023,53.9134533 6.20356068,53.8477245 6.20356068,53.7798467 L6.20356068,52.2117887 C6.20356068,51.8058443 5.88057191,51.4767614 5.48214507,51.4767614 C5.08371823,51.4767614 4.76072946,51.8058443 4.76072946,52.2117887 L4.76072946,53.7798467 C4.76072946,53.8477245 4.76975992,53.9134533 4.78666352,53.975854 Z M43.0919454,44.5675055 C43.4903723,44.5675055 43.813361,44.2384226 43.813361,43.8324783 L43.813361,23.9269611 C43.813106,23.6301225 43.637636,23.3625758 43.3685623,23.2487572 C43.0994886,23.1349387 42.7896319,23.1971915 42.583107,23.4065618 L22.9750307,43.312079 C22.7684107,43.5220658 22.7063147,43.8382032 22.8177065,44.1130335 C22.9290984,44.3878638 23.1920333,44.5672443 23.4838692,44.5675055 L43.0919454,44.5675055 Z" id="Combined-Shape" transform="translate(26.475646, 26.987927) scale(-1, 1) translate(-26.475646, -26.987927) "></path>
                            </g>
                            <g id="Group-15" transform="translate(36.000000, 36.000000)">
                                <path d="M72.219025,41 L0.738656126,41 C0.340268906,41 0.017312253,40.6729871 0.017312253,40.2695962 L0.017312253,0.7304038 C0.017312253,0.32701292 0.340268906,0 0.738656126,0 L72.219025,0 C72.6174123,0 72.9403689,0.32701292 72.9403689,0.7304038 L72.9403689,40.2695962 C72.9403689,40.6729871 72.6174123,41 72.219025,41 Z" id="Path" fill="#3135BA" fill-rule="nonzero"></path>
                                <path d="M70.2585924,39 L2.69908873,39 C2.32255398,39 2.01731225,38.7048908 2.01731225,38.3408551 L2.01731225,2.65914489 C2.01731225,2.29510922 2.32255398,2 2.69908873,2 L70.2585924,2 C70.6351272,2 70.9403689,2.29510922 70.9403689,2.65914489 L70.9403689,38.3408551 C70.9403689,38.7048908 70.6351272,39 70.2585924,39 Z" id="Path" fill="#DBD8F1" fill-rule="nonzero"></path>
                                <path d="M27.1109881,7.15795724 L6.91335968,7.15795724 C6.51497246,7.15795724 6.19201581,6.83094432 6.19201581,6.42755344 C6.19201581,6.02416256 6.51497246,5.69714964 6.91335968,5.69714964 L27.1109881,5.69714964 C27.5093754,5.69714964 27.832332,6.02416256 27.832332,6.42755344 C27.832332,6.83094432 27.5093754,7.15795724 27.1109881,7.15795724 Z" id="Path" fill="#FFFFFF"></path>
                                <path d="M17.0121739,10.8586698 L6.91335968,10.8586698 C6.51497246,10.8586698 6.19201581,10.4444535 6.19201581,9.93349169 C6.19201581,9.4225299 6.51497246,9.00831354 6.91335968,9.00831354 L17.0121739,9.00831354 C17.4105611,9.00831354 17.7335178,9.4225299 17.7335178,9.93349169 C17.7335178,10.4444535 17.4105611,10.8586698 17.0121739,10.8586698 Z" id="Path" fill="#FFFFFF"></path>
                                <path d="M67.2492335,15.9714985 C67.0575352,15.9712211 66.8738084,15.8937943 66.738522,15.7562728 L58.1112493,6.9914272 C57.90479,6.78267395 57.8430754,6.46843623 57.95495,6.19558364 C58.0668246,5.92273105 58.3301928,5.74515247 58.6219608,5.74584525 L67.2492335,5.74584525 C67.6476207,5.74584525 67.9705774,6.07285817 67.9705774,6.47624905 L67.9705774,15.2410947 C67.9705774,15.6444855 67.6476207,15.9714985 67.2492335,15.9714985 Z" id="Shape" fill="#3135BA" fill-rule="nonzero"></path>
                                <path d="M63.6975494,34.5724466 L9.26013175,34.5724466 C8.86174453,34.5724466 8.53878788,34.2454336 8.53878788,33.8420428 L8.53878788,23.7137767 C8.53878788,23.3103858 8.86174453,22.9833729 9.26013175,22.9833729 L63.6975494,22.9833729 C64.0959366,22.9833729 64.4188933,23.3103858 64.4188933,23.7137767 L64.4188933,33.8420428 C64.4188933,34.2454336 64.0959366,34.5724466 63.6975494,34.5724466 Z" id="Shape" fill="#FFFFFF" fill-rule="nonzero"></path>
                                <path d="M57.8517787,28.0475059 L37.6541502,28.0475059 C37.255763,28.0475059 36.9328063,27.720493 36.9328063,27.3171021 C36.9328063,26.9137113 37.255763,26.5866983 37.6541502,26.5866983 L57.8517787,26.5866983 C58.2501659,26.5866983 58.5731225,26.9137113 58.5731225,27.3171021 C58.5731225,27.720493 58.2501659,28.0475059 57.8517787,28.0475059 Z" id="Path" fill="#3135BA"></path>
                                <path d="M57.1785244,31.1638955 L47.0797101,31.1638955 C46.6813229,31.1638955 46.3583663,30.8368826 46.3583663,30.4334917 C46.3583663,30.0301008 46.6813229,29.7030879 47.0797101,29.7030879 L57.1785244,29.7030879 C57.5769116,29.7030879 57.8998682,30.0301008 57.8998682,30.4334917 C57.8998682,30.8368826 57.5769116,31.1638955 57.1785244,31.1638955 Z" id="Path" fill="#3135BA"></path>
                            </g>
                        </g>
                    </g>
                </g>
            </g>
        </g>
    </g>
</svg>