<?xml version="1.0" encoding="UTF-8"?>
<svg width="104px" height="196px" viewBox="0 0 104 196" version="1.1" xmlns="http://www.w3.org/2000/svg" xmlns:xlink="http://www.w3.org/1999/xlink">
    <!-- Generator: Sketch 52.4 (67378) - http://www.bohemiancoding.com/sketch -->
    <title>Leaves-green-darkGreen-yellow</title>
    <desc>Created with Sketch.</desc>
    <g id="Welcome" stroke="none" stroke-width="1" fill="none" fill-rule="evenodd">
        <g id="Desktop" transform="translate(-790.000000, -897.000000)">
            <g id="Our-Services" transform="translate(59.000000, 834.000000)">
                <g id="Leaves-green-darkGreen-yellow" transform="translate(783.000000, 161.000000) scale(-1, 1) translate(-783.000000, -161.000000) translate(731.000000, 63.000000)">
                    <path d="M90.607555,127 C90.607555,127 59.9954267,106.920871 56.4369551,68.6436912 C52.9325754,30.3684623 71.6580178,0 71.6580178,0 C71.6580178,0 105.17372,33.3539887 103.968244,71.685806 C102.708677,109.962986 90.607555,127 90.607555,127" id="Fill-1" fill="#B1D2BA"></path>
                    <path d="M64.8842531,162 C64.8842531,162 36.8298381,133.217491 27.9668141,94.0325086 C19.1057081,54.8494672 27.8574888,33 27.8574888,33 C27.8574888,33 67.1129556,62.9396334 71.0793554,102.784721 C75.0515092,142.68417 64.8842531,162 64.8842531,162" id="Fill-3" fill="#87BA97"></path>
                    <path d="M81.965861,196 C81.965861,196 45.1774346,194.889994 22.3972533,163.868558 C-0.382928016,132.903896 0,97 0,97 C0,97 46.1698231,108.043287 64.8675905,141.560767 C83.5653578,175.078248 81.965861,196 81.965861,196" id="Fill-5" fill="#FFD052"></path>
                    <path d="M16.3595471,123.320908 C15.8631151,122.762263 15.8631151,121.871185 16.4700808,121.369584 C17.0188709,120.867984 17.8430256,120.867984 18.3937548,121.424662 L43.0194974,148.747126 C43.0718555,148.802204 43.1300311,148.857282 43.1823892,148.914327 L73.6373295,182.649407 C74.1298831,183.263129 74.1298831,184.097163 73.581093,184.655808 C72.9760665,185.157408 72.1519118,185.102331 71.6031217,184.545653 L41.4778433,151.144973 L24.0542433,149.974572 C23.2843858,149.917527 22.7336566,149.248727 22.789893,148.467804 C22.8441902,147.686881 23.5054532,147.130203 24.2190742,147.185281 L38.7843118,148.133404 L16.3595471,123.320908 Z" id="Fill-7" fill="#D7B04A"></path>
                    <path d="M36.1024692,66.9324171 C35.8142435,66.2087532 36.1568895,65.4321383 36.8441969,65.0967819 C37.5859246,64.8202599 38.4445551,65.1536552 38.7307652,65.875358 L49.6994666,91.1153425 L51.7573579,77.9403451 C51.9286808,77.1617691 52.6119572,76.659715 53.4121362,76.7715005 C54.2123153,76.8832859 54.7262842,77.6049887 54.6134126,78.3286526 L51.8137937,95.9515353 L71.8666438,142.091482 C72.2092898,142.760234 71.8666438,143.593722 71.1249161,143.870244 C70.3831884,144.203639 69.5809938,143.870244 69.2383479,143.148541 L55.1273815,110.683685 L37.644376,106.514283 C36.8441969,106.347585 36.3866638,105.623921 36.5600024,104.847306 C36.7877611,104.123642 37.5294888,103.678461 38.2712165,103.845159 L53.7567978,107.514468 L36.1024692,66.9324171 Z" id="Fill-9" fill="#688971"></path>
                </g>
            </g>
        </g>
    </g>
</svg>