<?xml version="1.0" encoding="UTF-8"?>
<svg width="1245px" height="1245px" viewBox="0 0 1245 1245" version="1.1" xmlns="http://www.w3.org/2000/svg" xmlns:xlink="http://www.w3.org/1999/xlink">
    <!-- Generator: Sketch 52.4 (67378) - http://www.bohemiancoding.com/sketch -->
    <title>Logo--orange</title>
    <desc>Created with Sketch.</desc>
    <defs>
        <polygon id="path-1" points="0.249688902 0.051265091 982.919039 0.051265091 982.919039 72.3439811 0.249688902 72.3439811"></polygon>
        <polygon id="path-3" points="0.00235710554 0.284851214 1051.05514 0.284851214 1051.05514 934.602342 0.00235710554 934.602342"></polygon>
    </defs>
    <g id="Welcome" stroke="none" stroke-width="1" fill="none" fill-rule="evenodd">
        <g id="Logo--orange">
            <rect id="Rectangle" fill="#F8A444" x="0" y="0" width="1245" height="1245"></rect>
            <g id="Group-39" transform="translate(131.000000, 103.000000)">
                <g id="Group-3" transform="translate(4.000000, 968.799763)">
                    <mask id="mask-2" fill="white">
                        <use xlink:href="#path-1"></use>
                    </mask>
                    <g id="Clip-2"></g>
                    <path d="M982.919039,36.1990293 C982.919039,56.167839 762.9364,72.3467936 491.584364,72.3467936 C220.232328,72.3467936 0.249688902,56.167839 0.249688902,36.1990293 C0.249688902,16.2302197 220.232328,0.051265091 491.584364,0.051265091 C762.9364,0.051265091 982.919039,16.2302197 982.919039,36.1990293" id="Fill-1" fill="#8B572A" mask="url(#mask-2)"></path>
                </g>
                <path d="M185.585652,790.766749 L185.585652,963.804756 C171.43091,992.412424 91.4566183,996.416207 90.211001,965.347432 L69.5946194,778.174209 L185.585652,790.766749 Z" id="Fill-4" fill="#4C7DB6"></path>
                <path d="M185.585652,790.766749 L185.585652,963.804756 C171.43091,992.412424 91.4566183,996.416207 90.211001,965.347432 L69.5946194,778.174209 L185.585652,790.766749 Z" id="Fill-6" fill="#0C56EC"></path>
                <path d="M185.585652,790.50406 L69.5946194,778.174209 L79.6528302,868.333175 C122.2889,871.480624 160.330566,893.119338 185.585652,925.127773 L185.585652,790.50406 Z" id="Fill-8" fill="#001FFF"></path>
                <path d="M440.765923,793.643005 L440.765923,963.971147 C427.060462,992.205697 349.179178,996.413254 347.973097,965.742005 L374.88377,793.643005 L440.765923,793.643005 Z" id="Fill-10" fill="#0C56EC"></path>
                <path d="M440.765923,909.658977 L440.765923,793.643005 L373.296557,793.643005 L355.705833,907.955407 C368.434589,904.115157 381.775439,901.920729 395.554492,901.920729 C411.28807,901.920729 426.472155,904.707075 440.765923,909.658977 Z" id="Fill-12" fill="#001FFF"></path>
                <g id="Group-16">
                    <mask id="mask-4" fill="white">
                        <use xlink:href="#path-3"></use>
                    </mask>
                    <g id="Clip-15"></g>
                    <path d="M506.236152,841.408252 C506.236152,841.408252 -30.8738033,1049.24781 74.4832548,600.20936 C77.4037209,587.786521 53.7415503,552.788312 49.3572983,541.763131 C30.9818108,495.612035 19.0370334,447.531179 9.54374214,398.854366 C-10.5584442,295.88173 -2.52893889,178.116621 69.0047162,95.8392575 C134.065027,21.0042454 269.68053,-9.50285695 366.439622,24.9916282 C401.357311,37.442846 429.501083,51.3483245 459.970569,71.6250087 C459.991886,71.6391981 660.416866,199.932858 475.390061,341.053755 C475.390061,341.053755 398.299704,289.716426 395.720314,184.523146 C366.439622,80.6684816 131.307993,59.7342729 89.8956416,266.637331 C76.9347409,331.404948 106.430738,474.576217 177.289346,533.497792 C832.624886,479.606367 380.300822,849.113108 1051.05585,872.199298 C1051.05585,872.199298 763.237169,1031.30529 506.236152,841.408252 Z" id="Fill-14" fill="#1B64FA" mask="url(#mask-4)"></path>
                </g>
                <path d="M61.8882021,700.830228 C59.3706059,895.469876 238.004849,900.123481 371.171304,876.645519 C223.582619,883.769384 70.433643,852.817663 61.8882021,700.830228" id="Fill-17" fill="#92B6FF"></path>
                <path d="M332.507626,769.695988 C332.507626,782.923605 315.192916,793.643005 293.840444,793.643005 C272.487971,793.643005 255.180271,782.923605 255.180271,769.695988 C255.180271,756.468371 287.52443,739.502218 308.876902,739.502218 C330.229375,739.502218 332.507626,756.468371 332.507626,769.695988" id="Fill-23" fill="#001FFF"></path>
                <path d="M402.102246,804.054695 C402.102246,815.394717 388.260529,824.580597 371.175007,824.580597 C354.089484,824.580597 340.240362,815.394717 340.240362,804.054695 C340.240362,792.714672 366.12415,778.174209 383.19486,778.174209 C400.287788,778.174209 402.102246,792.714672 402.102246,804.054695" id="Fill-25" fill="#001FFF"></path>
                <path d="M394.36951,745.602786 C394.36951,755.048148 382.254959,762.705413 367.312025,762.705413 C352.354913,762.705413 340.240362,755.048148 340.240362,745.602786 C340.240362,736.1434 362.888689,724.033422 377.838712,724.033422 C392.774557,724.033422 394.36951,736.1434 394.36951,745.602786" id="Fill-27" fill="#001FFF"></path>
                <path d="M231.982065,784.274777 C231.982065,793.720139 219.867513,801.377403 204.924579,801.377403 C189.967468,801.377403 177.852916,793.720139 177.852916,784.274777 C177.852916,774.81539 200.501244,762.705413 215.451267,762.705413 C230.387112,762.705413 231.982065,774.81539 231.982065,784.274777" id="Fill-29" fill="#001FFF"></path>
                <path d="M286.111213,816.846199 L286.111213,986.734241 C256.792785,1010.86031 175.089654,1003.57186 184.464222,989.315866 L162.387445,816.846199 L286.111213,816.846199 Z" id="Fill-33" fill="#1B64FA"></path>
                <path d="M293.843949,822.946767 C293.843949,832.392129 281.729397,840.049394 266.786463,840.049394 C251.829352,840.049394 239.7148,832.392129 239.7148,822.946767 C239.7148,813.487381 262.363128,801.377403 277.313151,801.377403 C292.248996,801.377403 293.843949,813.487381 293.843949,822.946767" id="Fill-35" fill="#001FFF"></path>
                <path d="M510.360542,816.846199 L510.360542,986.597908 C495.71521,1015.00862 410.047338,1020.03946 408.758549,989.177461 L386.636775,816.846199 L510.360542,816.846199 Z" id="Fill-37" fill="#1B64FA"></path>
            </g>
            <path d="M641.360542,1027.97945 L641.360542,986.695155 C665.076905,972.823029 684.41121,953.424918 699.363618,928.500741 C733.083991,872.292231 749.943925,778.154217 749.943925,646.083872 L749.943925,577.690643 C749.943925,400.810717 716.611642,294.291293 649.946076,258.129175 C618.163654,240.834249 573.203831,232.186916 515.065255,232.186916 L487.158879,232.186916 L487.158879,1012.81308 L529.570723,1012.81308 L532.530777,1035.87225 C526.973631,1035.95742 521.370508,1036 515.721501,1036 L178,1036 L178,1013.55286 L256.761905,1013.55286 L256.761905,231.447143 L178,231.447143 L178,209 L546.748918,209 C699.500042,209 814.061667,239.913738 890.437229,301.742143 C966.812792,363.570547 1005,465.763097 1005,608.322857 C1005,770.573192 958.857123,883.595395 866.569986,947.392857 C807.054621,988.69207 731.985207,1015.55417 641.360542,1027.97945 Z" id="Combined-Shape" fill="#FFFFFF"></path>
            <path d="M241.803867,532.022151 L147.517176,535.266318 C145.031429,524.171163 142.722993,513.028467 140.543742,501.854366 C122.728977,410.598953 127.007963,307.725993 177.999999,228.230615 L178,232.186916 L256.875,232.186916 L256.875,283.121045 C240.588145,305.84354 227.939589,334.444588 220.895642,369.637331 C213.279822,407.694756 220.323234,472.822865 241.803866,532.022154 Z M628.304203,664.054949 C807.018444,746.763908 680.242245,957.92777 1182.05585,975.199298 C1182.05585,975.199298 903.270129,1129.31187 649.453125,953.159232 L649.453125,937.499994 L628.304203,664.054949 Z M191.629173,209 C194.318567,205.557181 197.109633,202.169155 200.004716,198.839257 C265.065027,124.004245 400.68053,93.4971431 497.439622,127.991628 C532.357311,140.442846 560.501083,154.348324 590.970569,174.625009 C590.991886,174.639198 791.416866,302.932858 606.390061,444.053755 C606.390061,444.053755 529.299704,392.716426 526.720314,287.523146 C514.826778,245.338379 468.969765,216.83471 415.927516,211.72412 C410.30702,210.743426 404.406704,209.835387 398.226562,209 L191.629173,209 Z" id="Combined-Shape" fill="#1B64FA"></path>
            <path d="M763.536958,994.923448 C750.849841,992.319938 739.048037,987.77628 728.238642,981.699047 C716.194091,979.865891 704.156679,978.018469 692.140687,975.90713 C690.655644,975.650346 689.213439,975.300834 687.756955,974.986986 C851.697075,1068.65626 1019.94953,1036.34421 1113.05741,1004.87385 C996.317363,1017.92706 879.520202,1018.74021 763.536958,994.923448" id="Fill-19" fill="#001FFF"></path>
            <path d="M579.498659,288.465108 C584.130705,281.857659 590.482433,274.717463 599.517696,271.555574 C608.587631,268.24839 619.2663,271.022827 625.728976,277.588763 C632.462085,283.91946 635.40912,294.394515 632.524493,303.561918 C629.716141,312.743158 622.989966,319.302175 616.242989,324.297545 L608.504421,311.041135 C614.356886,308.681826 619.425787,304.779626 621.429771,299.825769 C623.586308,294.989531 622.275744,289.004774 618.309381,285.109493 C614.370755,281.131186 608.379605,279.941153 603.622743,282.258949 C598.685592,284.500639 595.135281,289.627466 592.944074,295.888975 L579.498659,288.465108 Z" id="Fill-21" fill="#001FFF"></path>
            <path d="M662.802623,250.484485 C662.802623,250.484485 720.009328,336.109316 625.895071,409.375924 C667.083899,363.240912 680.23775,305.665716 661.879934,246.953564 L662.802623,250.484485 Z" id="Fill-31" fill="#92B6FF"></path>
        </g>
    </g>
</svg>