<?xml version="1.0" encoding="UTF-8"?>
<svg width="136px" height="188px" viewBox="0 0 136 188" version="1.1" xmlns="http://www.w3.org/2000/svg" xmlns:xlink="http://www.w3.org/1999/xlink">
    <!-- Generator: Sketch 52.4 (67378) - http://www.bohemiancoding.com/sketch -->
    <title>Plant--yellow-green</title>
    <desc>Created with Sketch.</desc>
    <g id="Welcome" stroke="none" stroke-width="1" fill="none" fill-rule="evenodd">
        <g id="Desktop" transform="translate(-84.000000, -1119.000000)">
            <g id="Our-Services" transform="translate(59.000000, 834.000000)">
                <g id="Plant--yellow-green" transform="translate(88.224363, 381.538738) rotate(-16.000000) translate(-88.224363, -381.538738) translate(23.724363, 289.038738)">
                    <path d="M42.9223013,177.764648 C42.4212118,176.779033 42.0292637,175.715752 41.4011858,174.819489 C25.8687852,152.663094 12.0675457,129.523146 2.33748647,104.18378 C0.634468698,99.7471395 0.0661096845,94.6630455 0.000899411252,89.8635013 C-0.0649972859,85.0350897 3.49891575,81.9552161 7.7945567,80.3874429 C12.3894785,78.7103861 17.1834632,77.5735615 21.9108648,76.2731551 C29.4086734,74.2105127 31.1920027,71.5251598 30.0456748,63.8182589 C29.105274,57.4942426 27.8127377,51.1970317 27.3301817,44.8386494 C27.0157996,40.6961816 27.3569522,36.3427071 28.3172593,32.3005877 C30.0470476,25.0136384 37.4775867,20.1192442 46.9639654,20.0037748 C64.1238772,19.7962046 76.5062784,28.1594945 85.082459,42.54713 C87.1623235,46.0359581 88.3834716,50.0382129 90,53.8026556 C87.2591093,57.8282793 84.1640238,61.6635158 81.8452837,65.9214532 C75.7869061,77.0484503 73.8971811,89.4758537 72.3705742,101.758233 C70.3367001,118.129469 69.3743338,134.636107 68.0454171,151.092571 C67.6411134,156.092125 67.8559641,161.156287 67.2223948,166.118725 C66.5325387,171.518986 66.1852082,176.752228 68.5945562,181.820513 C66.3561278,182.35456 64.1163265,182.887232 61.8758388,183.419216 C61.6486325,182.659042 61.3541566,181.912614 61.2052026,181.138006 C58.4972602,167.069974 55.9911264,152.960702 53.0600963,138.940095 C50.486693,126.631598 44.9067528,114.858521 46.7758852,101.796036 C47.0504548,99.8832285 47.3154144,97.9594244 47.4046495,96.032871 C47.973695,83.7772971 50.057678,71.8145209 54.2613381,60.2668849 C55.2346873,57.5904672 56.6322464,55.0604483 57.4834121,52.3524139 C57.7826929,51.3997906 57.0310587,50.1165672 56.7585484,48.9845539 C55.5950598,49.407942 54.2633974,49.6093263 53.3209374,50.3248247 C52.5816588,50.8863638 52.2700223,52.0596163 51.8595408,53.0005551 C46.1773235,66.0087426 43.7158073,79.7496115 42.6525367,93.8032102 C42.3326631,98.0412153 42.0443651,102.28197 41.6942889,107.177738 C40.9563831,106.071156 40.6207218,105.519239 40.2383837,105.001688 C36.9902257,100.610411 33.7777617,96.1923288 30.458902,91.8553499 C29.2171611,90.2332786 27.390587,88.8015944 25.5420474,90.5302001 C23.5802478,92.3632782 25.6704087,93.7365403 26.8558628,95.0479438 C35.5562861,104.675212 42.2571565,115.576082 45.2691847,128.203495 C49.3561527,145.340404 52.6187257,162.673198 56.2615775,179.917329 C56.6603898,181.804018 56.3528719,183.252198 54.3917587,184 C50.5690638,181.921549 46.7449961,179.843098 42.9223013,177.764648 Z" id="Fill-1" fill="#FCD736"></path>
                    <path d="M66.5092811,166.186228 C67.1423795,161.22794 66.9270026,156.166626 67.3310058,151.170562 C68.6596208,134.726273 69.620586,118.23047 71.6536345,101.870661 C73.1791067,89.5968552 75.0674273,77.1781264 81.1213024,66.0588963 C83.4383191,61.8039311 86.5304184,57.9720585 89.2699581,53.948558 C91.171997,52.7342273 92.9711488,51.2966741 94.9987099,50.3502105 C98.3754635,48.7739159 101.78857,46.8143654 105.380015,46.2484104 C115.818251,44.6034319 123.233665,51.2197482 125.598695,63.378852 C127.978816,75.6162554 125.011553,86.920932 119.961856,97.913097 C119.913842,98.0168097 119.847994,98.1109066 119.798609,98.2146192 C114.580862,109.322173 114.626133,109.571496 123.371533,117.80463 C129.474108,123.550035 130.850737,130.546173 126.333995,137.589703 C123.102655,142.628351 118.847246,147.007634 115.054829,151.687065 C114.644652,152.193265 114.278374,152.735868 113.891519,153.261299 C105.742863,160.175017 97.7375637,167.270746 89.3687296,173.906294 C86.366485,176.28619 82.4862708,177.556154 79.0073161,179.333006 C79.1499862,178.32404 79.1465566,177.266995 79.4586474,176.312976 C82.0740366,168.320922 84.2847367,160.151664 87.5476286,152.428851 C90.3077456,145.894268 93.8991902,139.597332 99.9647257,135.265441 C104.083638,132.323711 108.443992,130.044781 113.4834,129.035815 C114.47386,128.837318 115.169376,127.170361 116.00139,126.180627 C114.946454,125.58239 113.782459,124.346081 112.856475,124.50474 C109.991413,124.99583 106.938411,125.53019 104.465692,126.938896 C99.8879034,129.545449 95.6702195,132.783893 91.2920319,135.766833 C91.5026074,134.575168 91.7639406,133.142423 92.0094977,131.70693 C94.3025075,118.277175 96.4267824,104.815825 98.9392846,91.4272801 C100.840638,81.2977844 105.061751,71.9698293 109.7486,62.8410574 C110.147116,62.0635561 109.736939,60.2015366 109.077776,59.7386074 C108.440562,59.2921623 106.419174,59.6321474 106.002139,60.2743415 C104.342227,62.8314417 103.013612,65.613138 101.667164,68.3632398 C95.1290336,81.7140086 92.659744,96.2207267 90.113632,110.642964 C88.2589212,121.1461 87.2396533,131.796906 85.8033498,142.375594 C85.5598504,144.164809 85.3190947,146.009657 84.688054,147.681422 C82.1227365,154.479064 79.0827666,161.115299 76.8590341,168.018713 C75.4179293,172.493467 75.0873188,177.327437 74.2594209,182 C72.1324023,181.95879 70.0067555,181.917579 67.8797369,181.875682 C65.4721795,176.812308 65.8199378,171.582719 66.5092811,166.186228 Z" id="Fill-3" fill="#C8E46E"></path>
                    <path d="M105,21.7512335 C103.716585,26.4761524 102.401238,32.3431037 100.484609,38.0032841 C99.2976714,41.5088029 97.896718,41.9175519 95.3801655,39.3411325 C92.2684456,36.1567247 89.4801271,32.4766147 87.2978467,28.5856258 C84.0855734,22.8569782 81.181075,16.8907495 78.7970084,10.7684157 C76.5209687,4.92542797 79.2359104,1.09195147 85.4579914,0.185446219 C93.509057,-0.987396296 100.68096,3.48077081 103.01407,11.3825662 C103.877607,14.3054294 104.18742,17.3946678 105,21.7512335" id="Fill-5" fill="#FCD736"></path>
                    <path d="M54.5433727,183.647639 C56.4977968,182.901192 56.8034748,181.456965 56.4061618,179.575425 C52.7776893,162.378358 49.5273821,145.092869 45.4557791,128.002731 C42.4550747,115.409782 35.7787125,104.538664 27.1109987,94.9376708 C25.9306852,93.6298465 23.8483823,92.2603324 25.8021226,90.4322573 C27.6443965,88.7083694 29.4641035,90.1361461 30.7004922,91.7537904 C34.0068745,96.0789326 37.207945,100.484957 40.4438915,104.864249 C40.8247922,105.380387 41.1585078,105.930798 41.8943232,107.03436 C42.2423994,102.151953 42.5296136,97.9227729 42.8489684,93.6963344 C43.9082417,79.6810917 46.3605037,65.9777252 52.0206747,53.0050405 C52.4302969,52.0666697 52.7407617,50.8966194 53.477261,50.3366129 C54.4161778,49.6230672 55.7428338,49.4222326 56.9019482,49 C57.1727502,50.1289238 57.9222424,51.4086449 57.6240867,52.3586682 C56.7754372,55.0593117 55.3838161,57.5824255 54.4134424,60.2515386 C50.2255861,71.767658 48.1501217,83.6977847 47.5832156,95.9199099 C47.4943159,97.8412052 47.2296686,99.7597588 46.9568151,101.667345 C45.094026,114.69418 50.6529881,126.435124 53.2167167,138.710029 C56.1374114,152.69237 58.6341233,166.763134 61.3312013,180.792771 C61.4795952,181.565265 61.7736479,182.309655 62,183.067755 C61.7107626,184.503951 57.1269326,184.905426 57.1283003,184.483193 C56.2659739,184.204904 55.4043314,183.926614 54.5433727,183.647639 Z" id="Fill-7" fill="#D3A854"></path>
                    <path d="M78.7777778,179.281665 C78.2829538,182.106095 76.1925466,182.112934 74,181.93786 C74.8336784,177.284732 75.1670117,172.471575 76.6162871,168.015404 C78.8536922,161.142396 81.9123533,154.534734 84.4934438,147.766361 C85.1283644,146.101109 85.3712905,144.264888 85.615597,142.482693 C87.0607315,131.950236 88.0862664,121.345288 89.952381,110.88669 C92.5141477,96.5272335 94.9986197,82.0829753 101.57695,68.7896894 C102.931677,66.0514284 104.269151,63.2817089 105.938578,60.7356186 C106.358178,60.0955056 108.391994,59.7576682 109.033126,60.2021911 C109.697032,60.6624433 110.109041,62.5171295 109.708075,63.2912832 C104.992409,72.3807504 100.745342,81.6685431 98.8329883,91.7544254 C96.3043478,105.084641 94.1677019,118.488032 91.8599034,131.859964 C91.6135266,133.28996 91.3505866,134.716536 91.1380262,135.902387 C95.5431332,132.932974 99.7867495,129.708473 104.392685,127.11246 C106.881297,125.710503 109.952381,125.177759 112.835749,124.689468 C113.766736,124.531491 114.937888,125.762478 116,126.358138 C115.162871,127.343611 114.462388,129.003391 113.466529,129.201033 C108.395445,130.204971 104.008972,132.474773 99.8647343,135.403837 C93.7612146,139.717077 90.1483782,145.986901 87.3706004,152.493348 C84.0876467,160.182227 81.8640442,168.316995 79.2318841,176.274639 C78.9178744,177.22455 78.9213251,178.277044 78.7777778,179.281665" id="Fill-9" fill="#D3A854"></path>
                </g>
            </g>
        </g>
    </g>
</svg>