<?xml version="1.0" encoding="UTF-8"?>
<svg width="60px" height="160px" viewBox="0 0 60 160" version="1.1" xmlns="http://www.w3.org/2000/svg" xmlns:xlink="http://www.w3.org/1999/xlink">
    <!-- Generator: Sketch 52.4 (67378) - http://www.bohemiancoding.com/sketch -->
    <title>Plant--blue-yellow</title>
    <desc>Created with Sketch.</desc>
    <g id="Welcome" stroke="none" stroke-width="1" fill="none" fill-rule="evenodd">
        <g id="Desktop" transform="translate(-747.000000, -1568.000000)">
            <g id="Contact" transform="translate(-74.000000, 1438.000000)">
                <g id="Plant--blue-yellow" transform="translate(851.000000, 210.000000) scale(-1, 1) translate(-851.000000, -210.000000) translate(821.000000, 130.000000)">
                    <path d="M17.6171796,22.5891288 C17.6171796,22.5891288 10.4333683,4.52124266 19.7583112,0.60152707 C29.0864028,-3.31818853 45.8659471,12.7214911 47.8764067,25.427982 C49.8837176,38.0883773 42.742414,49.2164912 47.1159901,56.7872963 C51.4454841,64.3120058 59.2102348,83.099937 55.1483823,93.7798109 C51.1321862,104.456506 50.1938668,114.505347 53.0072507,122.344778 C55.8190602,130.184209 61.7103208,134.555344 59.5235327,145.864661 C57.8263711,154.875556 43.4996819,157.129472 30.737908,156.994364 C19.5804084,156.857667 10.8332561,157.173978 5.34503211,150.865239 C0.346434502,145.143027 -2.15365148,133.474481 2.35531971,121.082712 C7.04061939,108.242703 16.948076,96.1211495 16.8126809,85.4428651 C16.6347781,74.8106763 5.7905764,67.9169997 7.79946161,55.97506 C9.80834683,44.0362993 17.8863954,35.7454491 18.3744475,30.7432817 C18.8231405,25.7427037 17.6171796,22.5891288 17.6171796,22.5891288" id="Fill-37" fill="#FFD052" transform="translate(30.000000, 78.500000) scale(-1, 1) translate(-30.000000, -78.500000) "></path>
                    <path d="M33.4652578,158.542842 C33.4652578,159.362192 32.8355284,160 32.0245133,160 C31.2119079,160 30.5360619,159.362192 30.5360619,158.542842 L30.5360619,136.45573 L16.3369355,118.466976 C15.7962587,117.829168 15.9314279,116.918243 16.5627476,116.37201 C17.1479507,115.87076 18.0941351,116.007319 18.5902855,116.645127 L30.5360619,131.764548 L30.5360619,89.5021421 C30.5360619,88.6827919 31.2119079,88 32.0245133,88 C32.8355284,88 33.4652578,88.6827919 33.4652578,89.5021421 L33.4652578,105.39593 L43.4296128,92.8277401 C43.9241731,92.1899322 44.8274213,92.0983577 45.4571508,92.5996073 C46.0868802,93.1008568 46.1775231,94.0117815 45.6829628,94.6495894 L33.4652578,110.087112 L33.4652578,158.542842 Z" id="Fill-61" fill="#967B54" transform="translate(31.000000, 124.000000) scale(-1, 1) translate(-31.000000, -124.000000) "></path>
                </g>
            </g>
        </g>
    </g>
</svg>