<?xml version="1.0" encoding="UTF-8"?>
<svg width="659px" height="138px" viewBox="0 0 659 138" version="1.1" xmlns="http://www.w3.org/2000/svg" xmlns:xlink="http://www.w3.org/1999/xlink">
    <!-- Generator: Sketch 52.4 (67378) - http://www.bohemiancoding.com/sketch -->
    <title>services-bg--mask</title>
    <desc>Created with Sketch.</desc>
    <g id="Welcome" stroke="none" stroke-width="1" fill="none" fill-rule="evenodd">
        <g id="Desktop" transform="translate(-183.000000, -997.000000)" fill="#F5A623">
            <g id="Our-Services" transform="translate(59.000000, 834.000000)">
                <path d="M810.085416,170.328805 C781.27533,161.4757 777.17378,147.250198 819.049289,140.411741 C839.953966,136.987784 886.890259,128.314389 897.706445,123.878378 C937.068101,107.79902 938.622721,83.9826537 881.829475,67.7425023 C818.983135,49.7714553 731.494413,66.2859016 660.577279,74.5809586 C633.321814,77.7684548 577.190109,80.5492379 570.905475,68.5937624 C562.338526,52.3346941 577.190109,33.2948427 520.066093,27.5630245 C466.547472,22.1906273 404.693442,31.3464029 361.627161,44.6638945 C342.87249,50.4430049 313.433941,55.9478204 286.873092,51.5023508 C213.177489,39.2063713 123.737223,31.582864 47.4616121,47.5487205 C14.3845908,54.4817613 -15.6493446,62.0768932 -27.060917,72.8689799 C-46.9071298,91.7858714 -27.9209195,109.756918 11.8376601,125.836276 C67.4070559,148.319002 155.604517,159.491062 98.3151164,187.601563 C50.9818988,210.765296 -33.7755523,243.215589 53.8124002,267.750797 C127.805697,288.493169 239.341413,272.243559 334.967081,266.048277 C385.905694,262.737821 453.343512,271.026421 475.478268,278.013211 C497.613024,285 497.613024,289.396043 573.04275,297.843422 C627.04275,303.890885 653.810776,300.699673 683,285 C729.480623,260 750.480623,262.510818 807.406177,256.637123 C858.113251,251.416061 920.661898,249.760833 941.9635,233.558515 C979.869766,204.464336 869.22713,188.536313 810.085416,170.328805 Z" id="services-bg--mask"></path>
            </g>
        </g>
    </g>
</svg>