<?xml version="1.0" encoding="UTF-8"?>
<svg width="441px" height="198px" viewBox="0 0 441 198" version="1.1" xmlns="http://www.w3.org/2000/svg" xmlns:xlink="http://www.w3.org/1999/xlink">
    <!-- Generator: Sketch 52.4 (67378) - http://www.bohemiancoding.com/sketch -->
    <title>Combined Shape</title>
    <desc>Created with Sketch.</desc>
    <g id="Welcome" stroke="none" stroke-width="1" fill="none" fill-rule="evenodd">
        <g id="Desktop" transform="translate(-132.000000, -912.000000)" fill="#F5A623">
            <g id="Our-Services" transform="translate(59.000000, 834.000000)">
                <g id="Group-18" transform="translate(73.000000, 78.000000)">
                    <path d="M51.4838173,196.687178 C48.6262377,181.41683 36.6564324,168.38635 21.9752481,149.491194 C3.32135614,125.492733 -5.58657564,98.6709239 3.72485131,70.4374403 C9.0789218,54.3302379 23.1702146,42.9944942 38.6892595,32.6469224 C74.4761771,8.81786227 116.439674,20.1959562 151.016107,38.5477205 C163.4779,45.1825892 177.28985,36.9666454 186.089148,28.3413162 C206.294945,8.46494372 235.315559,-5.20006235 260.425373,2.818247 C287.226764,11.3729925 280.258713,39.7899938 284.278145,64.056673 C287.226764,81.9002346 313.562583,77.7499125 326.350276,72.9925705 C359.623108,60.612188 399.513815,54.1781906 429,81 C433.789943,85.3571232 437.732665,89.4910757 440.870704,93.4806983 L177.129923,197.107706 L51.4838184,196.687184 Z" id="Combined-Shape"></path>
                </g>
            </g>
        </g>
    </g>
</svg>