<?xml version="1.0" encoding="UTF-8"?>
<svg width="334px" height="176px" viewBox="0 0 334 176" version="1.1" xmlns="http://www.w3.org/2000/svg" xmlns:xlink="http://www.w3.org/1999/xlink">
    <!-- Generator: Sketch 52.4 (67378) - http://www.bohemiancoding.com/sketch -->
    <title>Stego</title>
    <desc>Created with Sketch.</desc>
    <g id="Welcome" stroke="none" stroke-width="1" fill="none" fill-rule="evenodd">
        <g id="Desktop" transform="translate(-228.000000, -1568.000000)">
            <g id="Contact" transform="translate(-74.000000, 1438.000000)">
                <g id="Stego" transform="translate(302.000000, 130.000000)">
                    <path d="M178.052542,70.6836869 C182.543214,53.1330166 185.04943,35.1380557 185.524559,17.0336098 C178.887079,10.3321783 172.385453,3.30243455 164.078898,-6.39488462e-14 C156.568064,4.11355883 150.978607,12.0509892 147,23.1749793 C150.608604,39.2831827 155.997984,54.9444089 163.06969,69.8725626 L178.052542,70.6836869 Z" id="Path" fill="#47B3B9"></path>
                    <path d="M210.716668,71.0359437 C218.167557,57.0105149 224.025997,42.2031882 228.183723,26.8876081 C223.913998,19.8192395 219.838352,12.4998085 213.433765,8 C206.194642,9.93124828 199.848278,15.5704932 194.025927,24.1838606 C193.791157,38.6374947 195.151381,53.0731073 198.082165,67.2313846 L210.716668,71.0359437 Z" id="Path" fill="#47B3B9"></path>
                    <path d="M227.316755,86.8708641 C238.923104,80.0991053 249.729644,72.0534555 259.533767,62.8847605 C259.630806,55.9322667 259.960739,48.8832105 257.379497,42.8190909 C251.304843,41.02303 244.220982,42.2397164 236.283176,45.8897756 C229.670703,56.1633995 224.210341,67.127609 220,78.585809 L227.316755,86.8708641 Z" id="Path" fill="#47B3B9"></path>
                    <path d="M242.648674,102.91121 C252.007902,100.173495 261.030325,96.4034731 269.547938,91.6713448 C270.828855,86.7852867 272.303851,81.8799161 271.488722,77.1676703 C267.607154,74.8501723 262.328222,74.4639227 256.117714,75.6612966 C249.688071,81.7389601 243.947834,88.5001429 239,95.8235286 L242.648674,102.91121 Z" id="Path" fill="#47B3B9"></path>
                    <path d="M151.950539,79.4673835 C151.142905,62.3641788 148.441821,45.4018079 143.896286,28.8879912 C136.133151,24.5233701 128.370015,19.8304368 119.966421,19 C114.357556,24.6585575 111.543419,33.3105497 111,44.3766024 C118.690019,58.0426588 127.838723,70.8435984 138.287421,82.5573808 L151.950539,79.4673835 Z" id="Path" fill="#47B3B9"></path>
                    <path d="M126.915964,95.4879256 C122.262086,80.8248143 115.994132,66.7183456 108.226215,53.4253381 C100.46308,51.4940898 92.6999443,49.1379669 85.1697029,50.3160284 C81.6180685,56.5346478 81.1716882,64.6845155 83.2289191,74.4180069 C93.0654791,84.5143421 103.971527,93.521369 115.756456,101.28167 L126.915964,95.4879256 Z" id="Path" fill="#47B3B9"></path>
                    <path d="M89.5183297,120.021646 C88.7831787,106.948132 86.6028171,93.9950049 83.0167038,81.3966809 C77.0196817,78.1328713 71.0614753,74.5793745 64.6568886,74 C60.4259798,78.3646211 58.3299333,84.9888027 58,93.4669826 C63.9601073,103.853031 71.0334871,113.565947 79.0963204,122.435707 L89.5183297,120.021646 Z" id="Path" fill="#47B3B9"></path>
                    <path d="M58.317029,126.412528 C57.7086877,115.502905 55.8927763,104.693352 52.902242,94.1799945 C47.8950197,91.4376219 42.9072052,88.3862497 37.5700496,88 C34.0184152,91.6500592 32.2717097,97.1734293 32,104.241798 C36.9776874,112.924178 42.8862878,121.044201 49.6223173,128.459651 L58.317029,126.412528 Z" id="Path" fill="#47B3B9"></path>
                    <path d="M183.111758,45.2845423 C173.679548,45.5742295 163.082868,43.8167936 154,46.5977911 C154.562827,49.1856638 161.00623,69.9079578 163.315762,70.0431452 L178.298614,70.9122069 C180.39466,62.434027 182.180181,53.8785971 183.383467,45.2845423 L183.111758,45.2845423 Z" id="Path" fill="#40A1A7"></path>
                    <path d="M215.320007,55.8686787 C211.723742,53.1723581 207.935752,50.7390439 203.985829,48.5878727 L203.578265,48.3754354 C201.928598,47.8153734 200.259524,47.2939363 198.59045,46.8497492 C197.387164,46.5407495 196.183878,46.2896872 195,46 C195.688245,53.2285954 196.757145,60.4162807 198.202293,67.5334183 L210.759165,71.3959148 C213.152798,66.8124189 215.391169,62.1774231 217.474277,57.4909272 C216.445662,56.679803 215.611124,56.081116 215.320007,55.8686787 Z" id="Path" fill="#40A1A7"></path>
                    <path d="M226.482218,64 C224.114462,68.9053706 221.940784,73.9652411 220,79.160299 L227.316755,87.4453541 C232.828581,84.187982 238.152798,80.6731101 243.289406,76.9007385 C237.641725,72.6713048 232.071676,68.3259961 226.482218,64 Z" id="Path" fill="#40A1A7"></path>
                    <path d="M249.59668,84.9312483 C249.286154,84.2939363 248.995037,83.6759369 248.703919,83 C245.212327,86.9407545 241.971384,91.0945803 239,95.4372389 L242.687489,102.544233 C247.625513,101.065503 252.478295,99.3183163 257.22396,97.3105497 C254.33397,93.4063972 251.782376,89.2650847 249.59668,84.9312483 Z" id="Path" fill="#40A1A7"></path>
                    <path d="M141.766387,48.9698732 C140.543693,49.3947479 134.372001,52.001933 135.711142,51.2873712 C130.867318,53.562908 126.17406,56.1431286 121.659867,59.0123643 L121,59.4565514 C126.35998,67.2453484 132.1932,74.7009826 138.467055,81.7817815 L152.052542,78.6917842 C151.507158,68.0601371 150.275455,57.4743776 148.365052,47 C146.191374,47.6566244 143.901249,48.2359989 141.766387,48.9698732 Z" id="Path" fill="#40A1A7"></path>
                    <path d="M113.484477,64.9849366 C112.552901,65.6222486 107.487455,69.4654326 108.224953,68.8474332 C104.071676,72.1691802 99.9572138,75.5295522 95.7651207,78.8319868 L92,81.7867966 C99.6781945,88.7777024 107.886109,95.1697266 116.550916,100.906155 L127.691015,95.1124097 C124.24963,84.434093 119.993396,74.0330207 114.959473,64 L113.484477,64.9849366 Z" id="Path" fill="#40A1A7"></path>
                    <path d="M63,101.349175 C67.8046357,108.65338 73.1639049,115.581034 79.0308746,122.071469 L89.4528838,119.638096 C88.8072882,108.635028 87.1704621,97.711834 84.5621085,87 C77.7517397,92.3215117 70.5434714,97.1184776 63,101.349175 Z" id="Path" fill="#40A1A7"></path>
                    <path d="M34,107.684435 C38.5327508,115.010253 43.7298554,121.907834 49.5262708,128.290854 L58.1045354,126.243731 C57.6702526,119.10857 56.7494963,112.010996 55.3486223,105 C48.5529647,107.590408 41.2296046,108.511267 34,107.684435 Z" id="Path" fill="#40A1A7"></path>
                    <ellipse id="Oval" fill-opacity="0.109176857" fill="#000000" cx="146.595071" cy="163.954427" rx="111.595071" ry="11.9544268"></ellipse>
                    <path d="M236.568338,118 C236.568338,118 241.594968,152.183094 247.68903,158.730026 C247.68903,158.730026 231.79401,167.015081 222.45884,163.519522 C222.45884,163.519522 208.252302,133.430674 208,121.534184 L236.568338,118 Z" id="Path" fill="#FCD736"></path>
                    <path d="M214.54893,120 C214.54893,120 219.594968,154.183094 225.68903,160.710714 C225.68903,160.710714 209.774602,169.015081 200.45884,165.519522 C200.45884,165.519522 186.252302,135.411361 186,123.534184 L214.54893,120 Z" id="Path" fill="#E2BE22"></path>
                    <path d="M111.072847,125.508307 C111.072847,125.508307 104.008394,159.343776 107.482397,167.570894 C107.482397,167.570894 89.6854091,169.927017 82.0775364,163.41871 C82.0775364,163.41871 79.127545,130.297802 82.9897048,119 L111.072847,125.508307 Z" id="Path" fill="#E2BE22"></path>
                    <polygon id="Path" fill="#E2BE22" points="139.625569 124.675937 133.337429 149.704915 140.266028 169.847834 109 164.247214 109.077631 124"></polygon>
                    <path d="M217.60688,131.58749 C217.605184,127.661361 218.187252,123.756587 219.334178,120 L208,121.390499 C208.252302,133.286988 222.45884,163.375836 222.45884,163.375836 C226.124758,164.449838 230.01444,164.516572 233.715386,163.568961 C223.655813,155.968232 217.706138,144.155878 217.60688,131.58749 Z" id="Path" fill="#CFAC12"></path>
                    <path d="M112.687489,144.857481 C112.699804,137.576193 114.71323,130.436934 118.509841,124.212437 L109,124 L109,164.247214 L118.917405,166.023962 C114.884363,159.690671 112.725306,152.355158 112.687489,144.857481 Z" id="Path" fill="#CFAC12"></path>
                    <path d="M183.79223,51.0020128 C231.011501,51.3496375 258.31833,115.196705 258.31833,115.196705 C261.889372,115.582955 266.372583,115.447768 269.458429,113.265457 C272.544276,111.083147 273.456444,107.162713 275.37782,104.130653 C286.24621,86.9811682 308.487593,76.9579896 324.576691,93.4701624 C326.308526,95.1790845 327.779703,97.131016 328.943454,99.2639072 C349.923328,136.923249 297.755058,116.316829 297.755058,116.316829 C292.631389,121.106325 289.235017,127.05457 283.37385,131.245379 C277.993299,135.099708 271.740453,137.573964 265.169297,138.448935 C253.175253,140.071183 242.093377,136.034874 230.584529,133.466314 C226.314804,132.520003 220.550676,131.264691 216.164505,132.365503 C147.926545,163.265475 117.417423,130.608067 117.417423,130.608067 C66.3359919,163.84485 2.84217094e-14,115.158081 2.84217094e-14,115.158081 C91.4109192,137.077748 115.534862,50.5192007 183.79223,51.0020128 Z" id="Path" fill="#FCD736"></path>
                    <path d="M300,95.6387237 C300.380623,93.6357208 301.377615,91.8000099 302.852952,90.3857284 C304.543763,88.9506703 306.908042,88.5985201 308.947014,89.4780417 C310.979679,90.3309772 312.369747,92.2347888 312.556871,94.4220373 C312.630087,96.488877 312.023635,98.5230542 310.829574,100.215782 L308.073661,98.0334716 C309.113127,97.1656802 309.762598,95.9217653 309.87859,94.5765372 C309.88684,93.3164071 309.115784,92.1808522 307.937806,91.7182897 C306.794436,91.190144 305.440567,91.4379081 304.560842,92.3362892 C303.673718,93.418065 303.267316,94.8125644 303.435187,96.1987857 L300,95.6387237 Z" id="Path" fill="#B3A50A"></path>
                    <path d="M331.340407,119.123224 C331.340407,119.123224 336.172959,95.3688702 313,90 C323.305562,94.8088082 329.186137,104.774049 331.340407,119.123224 Z" id="Path" fill="#FFF8A8"></path>
                    <path d="M175.406846,70.5747423 C175.406846,74.4372389 170.61311,77.3920488 164.693719,77.3920488 C158.774328,77.3920488 154,74.4372389 154,70.5747423 C154,66.7122458 162.947014,62 168.866404,62 C174.785795,62 175.406846,66.8281207 175.406846,70.5747423 Z" id="Path" fill="#E2BE22"></path>
                    <path d="M192.205545,80.4889942 C192.205545,83.3279292 188.576279,85.6454271 184.093069,85.6454271 C179.609858,85.6454271 176,83.3279292 176,80.4889942 C176,77.6500592 182.773336,74 187.256546,74 C191.739757,74 192.205545,77.6500592 192.205545,80.4889942 Z" id="Path" fill="#E2BE22"></path>
                    <path d="M192.827589,63.9482447 C192.827589,66.5361174 189.508848,68.6604905 185.413794,68.6604905 C181.31874,68.6604905 178,66.5361174 178,63.9482447 C178,61.360372 184.210508,58 188.305562,58 C192.400616,58 192.827589,61.3410595 192.827589,63.9482447 Z" id="Path" fill="#E2BE22"></path>
                    <path d="M147.827589,73.9482447 C147.827589,76.5361174 144.508848,78.6604905 140.413794,78.6604905 C136.31874,78.6604905 133,76.5361174 133,73.9482447 C133,71.360372 139.210508,68 143.305562,68 C147.400616,68 147.827589,71.3410595 147.827589,73.9482447 Z" id="Path" fill="#FAD319"></path>
                    <path d="M163.827589,85.9482447 C163.827589,88.5361174 160.508848,90.6604905 156.413794,90.6604905 C152.31874,90.6604905 149,88.5361174 149,85.9482447 C149,83.360372 155.210508,80 159.305562,80 C163.400616,80 163.827589,83.3410595 163.827589,85.9482447 Z" id="Path" fill="#E2BE22"></path>
                    <path d="M150,22.7952948 C153.609858,14.0081152 158.267739,6.88180904 165.041075,3 L166.419031,9.23793193 C159.296355,10.8601805 154.929591,17.7547368 150,22.7952948 Z" id="Path" fill="#8ACFD2"></path>
                    <path d="M197,25.083049 C201.58025,17.8988055 206.839774,12.3368104 213.438439,10 L213.651925,15.7937448 C207.111484,16.0641196 202.104262,21.4136773 197,25.083049 Z" id="Path" fill="#8ACFD2"></path>
                    <path d="M237,47.9341016 C244.1809,45.2110415 250.954236,44.071605 256.970666,45.8676659 L254.040082,50.0970996 C249.149307,46.8526025 242.608865,48.0499765 237,47.9341016 Z" id="Path" fill="#8ACFD2"></path>
                    <path d="M256,76.7065188 C261.104262,75.6829572 265.703919,75.6250197 269.585487,77.517643 L267.159507,80.0282658 C264.1707,77.2472683 259.706897,77.3438307 256,76.7065188 Z" id="Path" fill="#8ACFD2"></path>
                    <path d="M112,42.5183549 C112.524012,33.480113 114.542427,25.5813075 119.472018,20 L122.635495,25.2143703 C116.75492,28.922367 114.911176,36.4542353 112,42.5183549 Z" id="Path" fill="#8ACFD2"></path>
                    <path d="M84.3710287,73.881043 C82.5272841,65.7118628 82.29439,58.2186195 85.2249736,52 L89.378251,55.8624966 C85.0891187,60.5940548 85.3802363,67.7589859 84.3710287,73.881043 Z" id="Path" fill="#8ACFD2"></path>
                    <path d="M59,94.8103582 C59.1940784,87.3171149 60.6496663,80.7508708 64.5700496,76 L67.3259627,80.2294337 C62.5516344,83.4546183 61.2319014,89.7311752 59,94.8103582 Z" id="Path" fill="#8ACFD2"></path>
                    <path d="M34,104.31055 C34.1552627,98.5168049 35.2615095,93.6114343 38.2309088,90 L40.3463632,93.2251846 C36.7170974,95.6585575 35.6884819,100.448053 34,104.31055 Z" id="Path" fill="#8ACFD2"></path>
                </g>
            </g>
        </g>
    </g>
</svg>