<?xml version="1.0" encoding="UTF-8"?>
<svg width="125px" height="231px" viewBox="0 0 125 231" version="1.1" xmlns="http://www.w3.org/2000/svg" xmlns:xlink="http://www.w3.org/1999/xlink">
    <!-- Generator: Sketch 52.4 (67378) - http://www.bohemiancoding.com/sketch -->
    <title>Tree--green</title>
    <desc>Created with Sketch.</desc>
    <g id="Welcome" stroke="none" stroke-width="1" fill="none" fill-rule="evenodd">
        <g id="Desktop" transform="translate(-228.000000, -1504.000000)">
            <g id="Contact" transform="translate(-74.000000, 1438.000000)">
                <g id="Tree--green" transform="translate(302.000000, 66.000000)">
                    <path d="M18.4007587,44.2994307 C18.4007587,49.1086484 19.1723157,53.755933 20.6046519,58.1242244 C22.6977673,63.4328984 24.2952984,67.8577688 21.7610156,72.5031024 C18.5659535,78.1434466 11.9562175,82.1254398 7.27245872,90.9751807 C2.64506048,99.7117636 0,109.667722 0,120.28507 C0,154.905584 28.0423054,183 62.4727914,183 C97.0140552,183 125,154.905584 125,120.28507 C125,105.131645 118.831431,90.4210964 109.907024,79.5832854 C103.680152,72.6689375 101.641453,71.2310497 103.295345,62.769558 C104.616904,56.0776243 106.601185,51.3757116 106.601185,44.2994307 C106.601185,19.8533871 86.8788675,0 62.4727914,0 C38.1250194,0 18.4007587,19.8533871 18.4007587,44.2994307 Z" id="Fill-17" fill="#C8E46E"></path>
                    <polygon id="Fill-19" fill="#C8AF50" points="60.6069366 231 55.7379578 231 55.7379578 131.804915 46 118.865488 49.9172969 116.142017 55.7379578 123.695241 55.7379578 30 60.6069366 30 60.6069366 83.4838769 80.140111 57.8264286 84.1146668 60.4911196 60.6069366 91.4270076 60.6069366 156.186838 95.0293931 110.867497 99 113.587049 60.6069366 164.129969"></polygon>
                </g>
            </g>
        </g>
    </g>
</svg>